<mxfile host="app.diagrams.net" agent="Mozilla/5.0 (X11; Linux x86_64) AppleWebKit/537.36 (KHTML, like Gecko) Chrome/130.0.0.0 Safari/537.36" version="24.8.4">
  <diagram id="25jbnMCon5Vo1ahaZ_je" name="Page-1">
    <mxGraphModel dx="1354" dy="600" grid="0" gridSize="10" guides="1" tooltips="1" connect="1" arrows="1" fold="1" page="0" pageScale="1" pageWidth="850" pageHeight="1100" math="0" shadow="0">
      <root>
        <mxCell id="0" />
        <mxCell id="1" parent="0" />
        <mxCell id="zyBnyZH39aaDXPBgmjKQ-43" value="" style="rounded=0;whiteSpace=wrap;html=1;fontColor=#333333;fillColor=#f5f5f5;strokeColor=none;" parent="1" vertex="1">
          <mxGeometry x="-173" y="1282" width="1602" height="276" as="geometry" />
        </mxCell>
        <mxCell id="zyBnyZH39aaDXPBgmjKQ-17" value="" style="rounded=0;whiteSpace=wrap;html=1;fontColor=#333333;fillColor=#f5f5f5;strokeColor=none;" parent="1" vertex="1">
          <mxGeometry x="132" y="1046" width="1293" height="206" as="geometry" />
        </mxCell>
        <mxCell id="zyBnyZH39aaDXPBgmjKQ-16" value="" style="rounded=0;whiteSpace=wrap;html=1;fontColor=#333333;fillColor=#f5f5f5;strokeColor=none;" parent="1" vertex="1">
          <mxGeometry x="-175" y="838" width="1595" height="185" as="geometry" />
        </mxCell>
        <mxCell id="zyBnyZH39aaDXPBgmjKQ-15" value="" style="rounded=0;whiteSpace=wrap;html=1;fontColor=#333333;fillColor=#f5f5f5;strokeColor=none;" parent="1" vertex="1">
          <mxGeometry x="-177" y="632" width="1594" height="181" as="geometry" />
        </mxCell>
        <mxCell id="zyBnyZH39aaDXPBgmjKQ-14" value="" style="rounded=0;whiteSpace=wrap;html=1;fontColor=#333333;fillColor=#f5f5f5;strokeColor=none;" parent="1" vertex="1">
          <mxGeometry x="-188" y="424" width="1601" height="168" as="geometry" />
        </mxCell>
        <mxCell id="zyBnyZH39aaDXPBgmjKQ-13" value="&lt;br/&gt;&lt;br/&gt;&lt;br/&gt;&lt;br/&gt;&lt;br/&gt;&lt;br/&gt;&lt;p style=&quot;language:en-US;margin-top:0pt;margin-bottom:0pt;margin-left:0in;&lt;br/&gt;text-align:left;direction:ltr;unicode-bidi:embed;mso-line-break-override:none;&lt;br/&gt;word-break:normal;punctuation-wrap:hanging&quot;&gt;Response 302 (redirect)&lt;/p&gt;&lt;br/&gt;&lt;br/&gt;" style="rounded=0;whiteSpace=wrap;html=1;fontColor=#333333;fillColor=#f5f5f5;strokeColor=none;" parent="1" vertex="1">
          <mxGeometry x="-195" y="136" width="1596" height="194" as="geometry" />
        </mxCell>
        <mxCell id="nrdSoDVJXD9z_I3OJdGx-83" value="" style="endArrow=none;dashed=1;html=1;strokeWidth=1;rounded=0;fontSize=12;entryX=0.5;entryY=1;entryDx=0;entryDy=0;fontColor=#66FF66;strokeColor=#EA6B66;" parent="1" edge="1">
          <mxGeometry width="50" height="50" relative="1" as="geometry">
            <mxPoint x="107.92" y="1568" as="sourcePoint" />
            <mxPoint x="107.49999999999999" y="158" as="targetPoint" />
          </mxGeometry>
        </mxCell>
        <mxCell id="nrdSoDVJXD9z_I3OJdGx-82" value="" style="endArrow=none;dashed=1;html=1;strokeWidth=1;rounded=0;fontSize=12;entryX=0.5;entryY=1;entryDx=0;entryDy=0;fontColor=#66FF66;strokeColor=#EA6B66;" parent="1" target="nrdSoDVJXD9z_I3OJdGx-1" edge="1">
          <mxGeometry width="50" height="50" relative="1" as="geometry">
            <mxPoint x="-120" y="1568" as="sourcePoint" />
            <mxPoint x="-140" y="200" as="targetPoint" />
          </mxGeometry>
        </mxCell>
        <mxCell id="nrdSoDVJXD9z_I3OJdGx-84" value="" style="endArrow=none;dashed=1;html=1;strokeWidth=1;rounded=0;fontSize=12;entryX=0.5;entryY=1;entryDx=0;entryDy=0;fontColor=#66FF66;strokeColor=#EA6B66;" parent="1" edge="1">
          <mxGeometry width="50" height="50" relative="1" as="geometry">
            <mxPoint x="500" y="1570" as="sourcePoint" />
            <mxPoint x="499.5799999999999" y="160" as="targetPoint" />
          </mxGeometry>
        </mxCell>
        <mxCell id="nrdSoDVJXD9z_I3OJdGx-86" value="" style="endArrow=none;dashed=1;html=1;strokeWidth=1;rounded=0;fontSize=12;entryX=0.5;entryY=1;entryDx=0;entryDy=0;fontColor=#66FF66;strokeColor=#EA6B66;" parent="1" edge="1">
          <mxGeometry width="50" height="50" relative="1" as="geometry">
            <mxPoint x="1020" y="1573" as="sourcePoint" />
            <mxPoint x="1019.58" y="160" as="targetPoint" />
          </mxGeometry>
        </mxCell>
        <mxCell id="nrdSoDVJXD9z_I3OJdGx-1" value="Browser" style="rounded=0;whiteSpace=wrap;html=1;fillColor=#f8cecc;strokeColor=#b85450;" parent="1" vertex="1">
          <mxGeometry x="-180" y="100" width="120" height="60" as="geometry" />
        </mxCell>
        <mxCell id="nrdSoDVJXD9z_I3OJdGx-2" value="Web Proxy" style="rounded=0;whiteSpace=wrap;html=1;fillColor=#f8cecc;strokeColor=#b85450;" parent="1" vertex="1">
          <mxGeometry x="48" y="100" width="120" height="60" as="geometry" />
        </mxCell>
        <mxCell id="nrdSoDVJXD9z_I3OJdGx-4" value="OAuth2-Proxy" style="rounded=0;whiteSpace=wrap;html=1;fillColor=#f8cecc;strokeColor=#b85450;" parent="1" vertex="1">
          <mxGeometry x="241" y="100" width="120" height="60" as="geometry" />
        </mxCell>
        <mxCell id="nrdSoDVJXD9z_I3OJdGx-5" value="" style="endArrow=classic;html=1;rounded=0;" parent="1" edge="1">
          <mxGeometry width="50" height="50" relative="1" as="geometry">
            <mxPoint x="-118" y="240" as="sourcePoint" />
            <mxPoint x="103" y="240" as="targetPoint" />
          </mxGeometry>
        </mxCell>
        <mxCell id="nrdSoDVJXD9z_I3OJdGx-13" value="" style="endArrow=classic;html=1;rounded=0;" parent="1" edge="1">
          <mxGeometry width="50" height="50" relative="1" as="geometry">
            <mxPoint x="293" y="301" as="sourcePoint" />
            <mxPoint x="110" y="301" as="targetPoint" />
          </mxGeometry>
        </mxCell>
        <mxCell id="nrdSoDVJXD9z_I3OJdGx-16" value="&lt;b&gt;GET&lt;/b&gt; https://&amp;lt;cluster-ingress-domain&amp;gt;/oauth2/&lt;font color=&quot;#ff6666&quot;&gt;start&lt;/font&gt;" style="text;html=1;strokeColor=none;fillColor=none;align=center;verticalAlign=middle;whiteSpace=wrap;rounded=0;fontFamily=Lucida Console;" parent="1" vertex="1">
          <mxGeometry x="653" y="290" width="247" height="30" as="geometry" />
        </mxCell>
        <mxCell id="nrdSoDVJXD9z_I3OJdGx-17" value="&lt;i&gt;Initiate an auth_request&lt;br&gt;&lt;br&gt;Note: TLS termination handled by the ALB&lt;br&gt;&lt;/i&gt;" style="text;html=1;align=center;verticalAlign=middle;whiteSpace=wrap;rounded=0;fillColor=#dae8fc;strokeColor=#6c8ebf;" parent="1" vertex="1">
          <mxGeometry x="224" y="354" width="195" height="68" as="geometry" />
        </mxCell>
        <mxCell id="nrdSoDVJXD9z_I3OJdGx-19" value="" style="endArrow=classic;html=1;rounded=0;" parent="1" edge="1">
          <mxGeometry width="50" height="50" relative="1" as="geometry">
            <mxPoint x="107" y="239" as="sourcePoint" />
            <mxPoint x="299" y="239" as="targetPoint" />
          </mxGeometry>
        </mxCell>
        <mxCell id="nrdSoDVJXD9z_I3OJdGx-20" value="&lt;i&gt;Cookie / Headers not Present&lt;/i&gt;" style="text;html=1;strokeColor=#6c8ebf;fillColor=#dae8fc;align=center;verticalAlign=middle;whiteSpace=wrap;rounded=0;" parent="1" vertex="1">
          <mxGeometry x="258" y="258" width="150" height="30" as="geometry" />
        </mxCell>
        <mxCell id="nrdSoDVJXD9z_I3OJdGx-26" value="" style="endArrow=classic;html=1;rounded=0;" parent="1" edge="1">
          <mxGeometry width="50" height="50" relative="1" as="geometry">
            <mxPoint x="497" y="576" as="sourcePoint" />
            <mxPoint x="-110" y="576" as="targetPoint" />
          </mxGeometry>
        </mxCell>
        <mxCell id="nrdSoDVJXD9z_I3OJdGx-27" value="&lt;div style=&quot;font-size: 12px&quot;&gt;&lt;/div&gt;&lt;span style=&quot;font-size: 12px&quot;&gt;Response &lt;b&gt;302&lt;/b&gt; (redirect), set&amp;nbsp;&lt;/span&gt;&lt;span style=&quot;font-size: 12px&quot;&gt;cookie&lt;/span&gt;&lt;span style=&quot;font-size: 12px&quot;&gt;&amp;nbsp;&lt;b&gt;oauth2_cookie_csrf&lt;/b&gt;&lt;/span&gt;&lt;span style=&quot;font-size: 12px&quot;&gt;&lt;br style=&quot;font-size: 12px&quot;&gt;&lt;/span&gt;" style="text;html=1;strokeColor=none;fillColor=none;align=left;verticalAlign=middle;whiteSpace=wrap;rounded=0;fontSize=12;" parent="1" vertex="1">
          <mxGeometry x="-108.5" y="536" width="298" height="38" as="geometry" />
        </mxCell>
        <mxCell id="nrdSoDVJXD9z_I3OJdGx-29" value="" style="endArrow=classic;html=1;rounded=0;" parent="1" edge="1">
          <mxGeometry width="50" height="50" relative="1" as="geometry">
            <mxPoint x="-116" y="693" as="sourcePoint" />
            <mxPoint x="768" y="693" as="targetPoint" />
          </mxGeometry>
        </mxCell>
        <mxCell id="nrdSoDVJXD9z_I3OJdGx-32" value="&lt;b&gt;GET&lt;/b&gt;&amp;nbsp;https://code.rbi.tech/login/oauth/&lt;font color=&quot;#ff6666&quot;&gt;authorize&lt;/font&gt;?approval_prompt=force&amp;amp;client_id=*****&amp;amp;redirect_uri=https%3A%2F%2F&amp;lt;cluster-ingress-domain&amp;gt;%2Foauth2%2Fcallback&amp;amp;response_type=code&amp;amp;scope=user%3Aemail+read%3Aorg&amp;amp;state=*****" style="text;html=1;strokeColor=none;fillColor=none;align=left;verticalAlign=middle;whiteSpace=wrap;rounded=0;fontSize=12;fontFamily=Lucida Console;" parent="1" vertex="1">
          <mxGeometry x="-110" y="647" width="869" height="44" as="geometry" />
        </mxCell>
        <mxCell id="nrdSoDVJXD9z_I3OJdGx-42" value="" style="endArrow=classic;html=1;rounded=0;" parent="1" edge="1">
          <mxGeometry width="50" height="50" relative="1" as="geometry">
            <mxPoint x="766" y="1007" as="sourcePoint" />
            <mxPoint x="-121" y="1007" as="targetPoint" />
          </mxGeometry>
        </mxCell>
        <mxCell id="nrdSoDVJXD9z_I3OJdGx-43" value="&lt;div style=&quot;font-size: 12px&quot;&gt;&lt;/div&gt;&lt;span style=&quot;font-size: 12px&quot;&gt;Response &lt;b&gt;302 &lt;/b&gt;(redirect)&lt;/span&gt;&lt;span style=&quot;font-size: 12px&quot;&gt;&lt;br style=&quot;font-size: 12px&quot;&gt;&lt;/span&gt;" style="text;html=1;strokeColor=none;fillColor=none;align=left;verticalAlign=middle;whiteSpace=wrap;rounded=0;fontSize=12;" parent="1" vertex="1">
          <mxGeometry x="-110" y="980" width="570" height="27" as="geometry" />
        </mxCell>
        <mxCell id="nrdSoDVJXD9z_I3OJdGx-45" value="&lt;b&gt;GET&amp;nbsp;&lt;/b&gt;&lt;font style=&quot;font-size: 12px&quot;&gt;&lt;span style=&quot;font-size: 12px&quot;&gt;https://&amp;lt;cluster-ingress-domain&amp;gt;/oauth2/&lt;font color=&quot;#ff6666&quot;&gt;callback&lt;/font&gt;?state=*****&lt;/span&gt;&lt;/font&gt;" style="text;html=1;strokeColor=none;fillColor=none;align=left;verticalAlign=middle;whiteSpace=wrap;rounded=0;fontSize=12;fontFamily=Lucida Console;" parent="1" vertex="1">
          <mxGeometry x="-118" y="1094" width="310" height="49" as="geometry" />
        </mxCell>
        <mxCell id="nrdSoDVJXD9z_I3OJdGx-49" value="" style="endArrow=classic;html=1;rounded=0;" parent="1" edge="1">
          <mxGeometry width="50" height="50" relative="1" as="geometry">
            <mxPoint x="768" y="795" as="sourcePoint" />
            <mxPoint x="-116" y="795.42" as="targetPoint" />
          </mxGeometry>
        </mxCell>
        <mxCell id="nrdSoDVJXD9z_I3OJdGx-50" value="&lt;div style=&quot;font-size: 12px&quot;&gt;&lt;/div&gt;&lt;span style=&quot;font-size: 12px&quot;&gt;Response &lt;b&gt;200&lt;/b&gt;&lt;/span&gt;&lt;span style=&quot;font-size: 12px&quot;&gt;&lt;br style=&quot;font-size: 12px&quot;&gt;&lt;/span&gt;" style="text;html=1;strokeColor=none;fillColor=none;align=left;verticalAlign=middle;whiteSpace=wrap;rounded=0;fontSize=12;" parent="1" vertex="1">
          <mxGeometry x="-108" y="764" width="230" height="30" as="geometry" />
        </mxCell>
        <mxCell id="nrdSoDVJXD9z_I3OJdGx-55" value="" style="endArrow=classic;html=1;rounded=0;" parent="1" edge="1">
          <mxGeometry width="50" height="50" relative="1" as="geometry">
            <mxPoint x="-121" y="891" as="sourcePoint" />
            <mxPoint x="769" y="891" as="targetPoint" />
          </mxGeometry>
        </mxCell>
        <mxCell id="nrdSoDVJXD9z_I3OJdGx-58" value="" style="endArrow=classic;html=1;rounded=0;" parent="1" edge="1">
          <mxGeometry width="50" height="50" relative="1" as="geometry">
            <mxPoint x="-122" y="1143" as="sourcePoint" />
            <mxPoint x="198" y="1143" as="targetPoint" />
          </mxGeometry>
        </mxCell>
        <mxCell id="nrdSoDVJXD9z_I3OJdGx-63" value="" style="endArrow=classic;html=1;rounded=0;" parent="1" edge="1">
          <mxGeometry width="50" height="50" relative="1" as="geometry">
            <mxPoint x="500" y="1223" as="sourcePoint" />
            <mxPoint x="-122" y="1223" as="targetPoint" />
          </mxGeometry>
        </mxCell>
        <mxCell id="nrdSoDVJXD9z_I3OJdGx-66" value="" style="endArrow=classic;html=1;rounded=0;" parent="1" edge="1">
          <mxGeometry width="50" height="50" relative="1" as="geometry">
            <mxPoint x="200" y="1143" as="sourcePoint" />
            <mxPoint x="498" y="1143" as="targetPoint" />
          </mxGeometry>
        </mxCell>
        <mxCell id="nrdSoDVJXD9z_I3OJdGx-77" value="" style="endArrow=classic;html=1;rounded=0;" parent="1" edge="1">
          <mxGeometry width="50" height="50" relative="1" as="geometry">
            <mxPoint x="-117" y="1332" as="sourcePoint" />
            <mxPoint x="194" y="1332" as="targetPoint" />
          </mxGeometry>
        </mxCell>
        <mxCell id="nrdSoDVJXD9z_I3OJdGx-78" value="" style="endArrow=classic;html=1;rounded=0;" parent="1" edge="1">
          <mxGeometry width="50" height="50" relative="1" as="geometry">
            <mxPoint x="197" y="1332" as="sourcePoint" />
            <mxPoint x="502" y="1332" as="targetPoint" />
          </mxGeometry>
        </mxCell>
        <mxCell id="nrdSoDVJXD9z_I3OJdGx-79" value="&lt;br&gt;&lt;br&gt;&lt;p style=&quot;margin-top: 0pt; margin-bottom: 0pt; margin-left: 0in; direction: ltr; unicode-bidi: embed; word-break: normal;&quot;&gt;Oki Provider Proxy&lt;/p&gt;&lt;br&gt;" style="rounded=0;whiteSpace=wrap;html=1;fillColor=#f8cecc;strokeColor=#b85450;" parent="1" vertex="1">
          <mxGeometry x="430" y="100" width="120" height="60" as="geometry" />
        </mxCell>
        <mxCell id="nrdSoDVJXD9z_I3OJdGx-80" value="" style="endArrow=classic;html=1;rounded=0;" parent="1" edge="1">
          <mxGeometry width="50" height="50" relative="1" as="geometry">
            <mxPoint x="500" y="1418" as="sourcePoint" />
            <mxPoint x="-119" y="1418" as="targetPoint" />
          </mxGeometry>
        </mxCell>
        <mxCell id="nrdSoDVJXD9z_I3OJdGx-81" value="&lt;div style=&quot;font-size: 12px&quot;&gt;&lt;/div&gt;&lt;span style=&quot;font-size: 12px&quot;&gt;Response &lt;b&gt;202&lt;/b&gt;&lt;br style=&quot;font-size: 12px&quot;&gt;&lt;/span&gt;" style="text;html=1;strokeColor=none;fillColor=none;align=left;verticalAlign=middle;whiteSpace=wrap;rounded=0;fontSize=12;" parent="1" vertex="1">
          <mxGeometry x="-113" y="1394" width="114" height="21" as="geometry" />
        </mxCell>
        <mxCell id="zyBnyZH39aaDXPBgmjKQ-3" value="" style="endArrow=classic;html=1;rounded=0;" parent="1" edge="1">
          <mxGeometry width="50" height="50" relative="1" as="geometry">
            <mxPoint x="199.00000000000023" y="467" as="sourcePoint" />
            <mxPoint x="496" y="467" as="targetPoint" />
          </mxGeometry>
        </mxCell>
        <mxCell id="zyBnyZH39aaDXPBgmjKQ-4" value="" style="endArrow=classic;html=1;rounded=0;" parent="1" edge="1">
          <mxGeometry width="50" height="50" relative="1" as="geometry">
            <mxPoint x="108" y="301" as="sourcePoint" />
            <mxPoint x="-113" y="301" as="targetPoint" />
          </mxGeometry>
        </mxCell>
        <mxCell id="zyBnyZH39aaDXPBgmjKQ-6" value="&lt;b&gt;GET&lt;/b&gt; https://&amp;lt;cluster-ingress-domain&amp;gt;/oauth2/&lt;font color=&quot;#ff6666&quot;&gt;start&lt;/font&gt;?rd=&amp;lt;resource-url&amp;gt;" style="text;html=1;strokeColor=none;fillColor=none;align=left;verticalAlign=middle;whiteSpace=wrap;rounded=0;fontFamily=Lucida Console;" parent="1" vertex="1">
          <mxGeometry x="-113" y="437" width="307" height="30" as="geometry" />
        </mxCell>
        <mxCell id="zyBnyZH39aaDXPBgmjKQ-7" value="" style="endArrow=classic;html=1;rounded=0;" parent="1" edge="1">
          <mxGeometry width="50" height="50" relative="1" as="geometry">
            <mxPoint x="-119.99999999999977" y="466.31" as="sourcePoint" />
            <mxPoint x="194" y="466" as="targetPoint" />
          </mxGeometry>
        </mxCell>
        <mxCell id="zyBnyZH39aaDXPBgmjKQ-10" value="&lt;i&gt;Redirect to OIDC IdP&lt;/i&gt;" style="text;html=1;strokeColor=#6c8ebf;fillColor=#dae8fc;align=center;verticalAlign=middle;whiteSpace=wrap;rounded=0;" parent="1" vertex="1">
          <mxGeometry x="436" y="507" width="150" height="30" as="geometry" />
        </mxCell>
        <mxCell id="zyBnyZH39aaDXPBgmjKQ-12" value="&lt;i&gt;Token Present&lt;/i&gt;" style="text;html=1;strokeColor=#6c8ebf;fillColor=#dae8fc;align=center;verticalAlign=middle;whiteSpace=wrap;rounded=0;" parent="1" vertex="1">
          <mxGeometry x="422" y="1167.5" width="150" height="30.5" as="geometry" />
        </mxCell>
        <mxCell id="zyBnyZH39aaDXPBgmjKQ-19" value="&lt;b&gt;GET &lt;/b&gt;https://&amp;lt;cluster-ingress-domain&amp;gt;/oauth2/callback?state=*****" style="text;html=1;strokeColor=none;fillColor=none;align=left;verticalAlign=middle;whiteSpace=wrap;rounded=0;fontFamily=Lucida Console;" parent="1" vertex="1">
          <mxGeometry x="214" y="1101" width="271" height="38" as="geometry" />
        </mxCell>
        <mxCell id="zyBnyZH39aaDXPBgmjKQ-26" value="&lt;div style=&quot;font-size: 12px&quot;&gt;&lt;/div&gt;&lt;span style=&quot;font-size: 12px&quot;&gt;Response &lt;b&gt;302&lt;/b&gt; (redirect), set&amp;nbsp;&lt;/span&gt;&lt;span style=&quot;font-size: 12px&quot;&gt;cookie&lt;/span&gt;&lt;span style=&quot;font-size: 12px&quot;&gt;&amp;nbsp;&lt;b&gt;oauth2_cookie,&amp;nbsp;&lt;/b&gt;&lt;/span&gt;unset cookie&amp;nbsp;&lt;b&gt;oauth2_cookie_csrf&lt;/b&gt;&lt;span style=&quot;font-size: 12px&quot;&gt;&lt;br style=&quot;font-size: 12px&quot;&gt;&lt;/span&gt;" style="text;html=1;strokeColor=none;fillColor=none;align=left;verticalAlign=middle;whiteSpace=wrap;rounded=0;fontSize=12;" parent="1" vertex="1">
          <mxGeometry x="-112" y="1196" width="570" height="27" as="geometry" />
        </mxCell>
        <mxCell id="zyBnyZH39aaDXPBgmjKQ-27" value="&lt;i&gt;Cookie Present&lt;/i&gt;" style="text;html=1;strokeColor=#6c8ebf;fillColor=#dae8fc;align=center;verticalAlign=middle;whiteSpace=wrap;rounded=0;" parent="1" vertex="1">
          <mxGeometry x="425" y="1359" width="150" height="30.5" as="geometry" />
        </mxCell>
        <mxCell id="zyBnyZH39aaDXPBgmjKQ-28" value="&lt;i&gt;User lands on resource page&lt;/i&gt;" style="text;html=1;strokeColor=#6c8ebf;fillColor=#dae8fc;align=center;verticalAlign=middle;whiteSpace=wrap;rounded=0;" parent="1" vertex="1">
          <mxGeometry x="931.5" y="1484" width="177" height="30" as="geometry" />
        </mxCell>
        <mxCell id="zyBnyZH39aaDXPBgmjKQ-30" value="User initiates request, auth_request directive return 401 and redirects" style="text;html=1;strokeColor=#82b366;fillColor=#d5e8d4;align=left;verticalAlign=middle;whiteSpace=wrap;rounded=0;labelBackgroundColor=none;fontFamily=Helvetica;fontSize=11;" parent="1" vertex="1">
          <mxGeometry x="-376" y="266" width="160" height="48" as="geometry" />
        </mxCell>
        <mxCell id="zyBnyZH39aaDXPBgmjKQ-32" value="User Lands on IdP Login Page" style="text;html=1;strokeColor=#82b366;fillColor=#d5e8d4;align=left;verticalAlign=middle;whiteSpace=wrap;rounded=0;labelBackgroundColor=none;fontFamily=Helvetica;fontSize=11;" parent="1" vertex="1">
          <mxGeometry x="-386" y="701" width="158" height="44.5" as="geometry" />
        </mxCell>
        <mxCell id="zyBnyZH39aaDXPBgmjKQ-37" value="&lt;b style=&quot;font-family: &amp;quot;Lucida Console&amp;quot;;&quot;&gt;GET&lt;/b&gt;&lt;span style=&quot;font-family: &amp;quot;Lucida Console&amp;quot;;&quot;&gt;&amp;nbsp;https://&amp;lt;cluster-ingress-domain&amp;gt;/oauth2/&lt;font color=&quot;#ff3333&quot;&gt;auth&lt;/font&gt;&lt;/span&gt;" style="text;html=1;strokeColor=none;fillColor=none;align=left;verticalAlign=middle;whiteSpace=wrap;rounded=0;" parent="1" vertex="1">
          <mxGeometry x="198" y="1300" width="210" height="30" as="geometry" />
        </mxCell>
        <mxCell id="zyBnyZH39aaDXPBgmjKQ-39" value="" style="endArrow=classic;html=1;rounded=0;" parent="1" edge="1">
          <mxGeometry width="50" height="50" relative="1" as="geometry">
            <mxPoint x="-123" y="1465" as="sourcePoint" />
            <mxPoint x="1021" y="1465" as="targetPoint" />
          </mxGeometry>
        </mxCell>
        <mxCell id="zyBnyZH39aaDXPBgmjKQ-40" value="&lt;div style=&quot;font-size: 12px&quot;&gt;&lt;/div&gt;&lt;span style=&quot;font-size: 12px&quot;&gt;GET myresource:80&lt;br style=&quot;font-size: 12px&quot;&gt;&lt;/span&gt;" style="text;html=1;strokeColor=none;fillColor=none;align=left;verticalAlign=middle;whiteSpace=wrap;rounded=0;fontSize=12;" parent="1" vertex="1">
          <mxGeometry x="-80" y="1441" width="114" height="21" as="geometry" />
        </mxCell>
        <mxCell id="zyBnyZH39aaDXPBgmjKQ-41" value="" style="endArrow=classic;html=1;rounded=0;" parent="1" edge="1">
          <mxGeometry width="50" height="50" relative="1" as="geometry">
            <mxPoint x="1021" y="1533" as="sourcePoint" />
            <mxPoint x="-122" y="1533" as="targetPoint" />
          </mxGeometry>
        </mxCell>
        <mxCell id="zyBnyZH39aaDXPBgmjKQ-42" value="&lt;div style=&quot;font-size: 12px&quot;&gt;&lt;/div&gt;&lt;span style=&quot;font-size: 12px&quot;&gt;Response &lt;b&gt;200&lt;/b&gt;&lt;br style=&quot;font-size: 12px&quot;&gt;&lt;/span&gt;" style="text;html=1;strokeColor=none;fillColor=none;align=left;verticalAlign=middle;whiteSpace=wrap;rounded=0;fontSize=12;" parent="1" vertex="1">
          <mxGeometry x="-113" y="1510" width="114" height="21" as="geometry" />
        </mxCell>
        <mxCell id="zyBnyZH39aaDXPBgmjKQ-44" value="OAuth2-Proxy authentication flow starts, user is redirected to OIDC IdP" style="text;html=1;strokeColor=#82b366;fillColor=#d5e8d4;align=left;verticalAlign=middle;whiteSpace=wrap;rounded=0;labelBackgroundColor=none;fontFamily=Helvetica;fontSize=11;" parent="1" vertex="1">
          <mxGeometry x="-379" y="482.25" width="159" height="51.5" as="geometry" />
        </mxCell>
        <mxCell id="zyBnyZH39aaDXPBgmjKQ-45" value="User logs in and is redirected to callback url" style="text;html=1;strokeColor=#82b366;fillColor=#d5e8d4;align=left;verticalAlign=middle;whiteSpace=wrap;rounded=0;labelBackgroundColor=none;fontFamily=Helvetica;fontSize=11;" parent="1" vertex="1">
          <mxGeometry x="-386" y="909" width="158" height="44.5" as="geometry" />
        </mxCell>
        <mxCell id="zyBnyZH39aaDXPBgmjKQ-46" value="Auth token is now present, OAuth2-Proxy sets cookie and redirects user to originally requested URL&amp;nbsp;" style="text;html=1;strokeColor=#82b366;fillColor=#d5e8d4;align=left;verticalAlign=middle;whiteSpace=wrap;rounded=0;labelBackgroundColor=none;fontFamily=Helvetica;fontSize=11;" parent="1" vertex="1">
          <mxGeometry x="-386" y="1116" width="158" height="72" as="geometry" />
        </mxCell>
        <mxCell id="zyBnyZH39aaDXPBgmjKQ-47" value="Initiatial request is repeated, auth_request directive return 202, user lands on resource page" style="text;html=1;strokeColor=#82b366;fillColor=#d5e8d4;align=left;verticalAlign=middle;whiteSpace=wrap;rounded=0;labelBackgroundColor=none;fontFamily=Helvetica;fontSize=11;" parent="1" vertex="1">
          <mxGeometry x="-379.5" y="1409" width="160" height="64" as="geometry" />
        </mxCell>
        <mxCell id="sUZ6NitdXBb02XWMahtA-1" value="&lt;b&gt;GET&lt;/b&gt; https://&amp;lt;cluster-ingress-domain&amp;gt;/oauth2/&lt;font color=&quot;#ff6666&quot;&gt;start&lt;/font&gt;?rd=&amp;lt;resource-url&amp;gt;" style="text;html=1;strokeColor=none;fillColor=none;align=left;verticalAlign=middle;whiteSpace=wrap;rounded=0;fontFamily=Lucida Console;" parent="1" vertex="1">
          <mxGeometry x="192" y="437" width="307" height="30" as="geometry" />
        </mxCell>
        <mxCell id="sUZ6NitdXBb02XWMahtA-2" value="&lt;i&gt;Note: The SAML 2.0 authorization flow between GitHub and Ping Identity IdP is not included in the flow as it is out of scope of this solution.&lt;/i&gt;" style="text;html=1;strokeColor=#d6b656;fillColor=#fff2cc;align=center;verticalAlign=middle;whiteSpace=wrap;rounded=0;fontStyle=1" parent="1" vertex="1">
          <mxGeometry x="856" y="698.38" width="233" height="90.25" as="geometry" />
        </mxCell>
        <mxCell id="zyBnyZH39aaDXPBgmjKQ-11" value="&lt;i&gt;User sees the GitHub login page&lt;br&gt;(and is asked to sign in with RBI Ping Federate)&lt;br&gt;&lt;/i&gt;" style="text;html=1;strokeColor=#6c8ebf;fillColor=#dae8fc;align=center;verticalAlign=middle;whiteSpace=wrap;rounded=0;" parent="1" vertex="1">
          <mxGeometry x="703.5" y="707" width="133" height="73" as="geometry" />
        </mxCell>
        <mxCell id="sUZ6NitdXBb02XWMahtA-3" value="" style="endArrow=none;dashed=1;html=1;strokeWidth=1;rounded=0;fontSize=12;entryX=0.5;entryY=1;entryDx=0;entryDy=0;fontColor=#66FF66;strokeColor=#EA6B66;" parent="1" target="zyBnyZH39aaDXPBgmjKQ-11" edge="1">
          <mxGeometry width="50" height="50" relative="1" as="geometry">
            <mxPoint x="768" y="1574" as="sourcePoint" />
            <mxPoint x="769.1700000000001" y="160" as="targetPoint" />
          </mxGeometry>
        </mxCell>
        <mxCell id="sUZ6NitdXBb02XWMahtA-4" value="&lt;b&gt;GET&lt;/b&gt;&amp;nbsp;https://code.rbi.tech/login/oauth/&lt;font color=&quot;#ff6666&quot;&gt;authorize&lt;/font&gt;?approval_prompt=force&amp;amp;client_id=*****&amp;amp;redirect_uri=https%3A%2F%2F&amp;lt;cluster-ingress-domain&amp;gt;%2Foauth2%2Fcallback&amp;amp;response_type=code&amp;amp;scope=user%3Aemail+read%3Aorg&amp;amp;state=*****" style="text;html=1;strokeColor=none;fillColor=none;align=left;verticalAlign=middle;whiteSpace=wrap;rounded=0;fontSize=12;fontFamily=Lucida Console;" parent="1" vertex="1">
          <mxGeometry x="-111" y="845" width="869" height="44" as="geometry" />
        </mxCell>
        <mxCell id="zyBnyZH39aaDXPBgmjKQ-34" value="&lt;i&gt;User logs in&lt;/i&gt;" style="text;html=1;strokeColor=#6c8ebf;fillColor=#dae8fc;align=center;verticalAlign=middle;whiteSpace=wrap;rounded=0;" parent="1" vertex="1">
          <mxGeometry x="695" y="932" width="150" height="30" as="geometry" />
        </mxCell>
        <mxCell id="sUZ6NitdXBb02XWMahtA-5" value="&lt;b&gt;GET&lt;/b&gt; https://&amp;lt;cluster-ingress-domain&amp;gt;/vsc/&amp;lt;user-logon&amp;gt;/" style="text;html=1;strokeColor=none;fillColor=none;align=left;verticalAlign=middle;whiteSpace=wrap;rounded=0;fontFamily=Lucida Console;" parent="1" vertex="1">
          <mxGeometry x="-116" y="1300" width="312" height="30" as="geometry" />
        </mxCell>
        <mxCell id="lD57RcSdG65FDA6tdVYm-1" value="&lt;br&gt;&lt;span style=&quot;background-color: initial;&quot;&gt;Oki &lt;/span&gt;&lt;span style=&quot;background-color: initial; font-size: 11pt; font-family: Calibri;&quot;&gt;OAuth&lt;/span&gt;&lt;span style=&quot;background-color: initial; font-size: 11pt; font-family: Calibri;&quot;&gt; Token&amp;nbsp;&lt;/span&gt;&lt;br&gt;&lt;p style=&quot;margin-top: 0pt; margin-bottom: 0pt; margin-left: 0in; direction: ltr; unicode-bidi: embed; word-break: normal;&quot;&gt;&lt;span style=&quot;font-size: 11pt; font-family: Calibri;&quot;&gt;Exchange&lt;/span&gt;&lt;/p&gt;" style="rounded=0;whiteSpace=wrap;html=1;fillColor=#f8cecc;strokeColor=#b85450;" parent="1" vertex="1">
          <mxGeometry x="605" y="102" width="120" height="60" as="geometry" />
        </mxCell>
        <mxCell id="lD57RcSdG65FDA6tdVYm-3" value="&lt;span style=&quot;background-color: initial;&quot;&gt;Blockchain&lt;/span&gt;" style="rounded=0;whiteSpace=wrap;html=1;fillColor=#f8cecc;strokeColor=#b85450;" parent="1" vertex="1">
          <mxGeometry x="774" y="102" width="120" height="60" as="geometry" />
        </mxCell>
        <mxCell id="lD57RcSdG65FDA6tdVYm-4" value="&lt;br&gt;&lt;br&gt;&lt;p style=&quot;margin-top: 0pt; margin-bottom: 0pt; margin-left: 0in; direction: ltr; unicode-bidi: embed; word-break: normal;&quot;&gt;DEX &lt;span style=&quot;font-size: 11pt; font-family: Calibri;&quot;&gt;IdP&lt;/span&gt;&lt;/p&gt;&lt;br&gt;" style="rounded=0;whiteSpace=wrap;html=1;fillColor=#f8cecc;strokeColor=#b85450;" parent="1" vertex="1">
          <mxGeometry x="960" y="100" width="120" height="60" as="geometry" />
        </mxCell>
        <mxCell id="lD57RcSdG65FDA6tdVYm-11" value="&lt;br&gt;&lt;br&gt;&lt;p style=&quot;margin-top: 0pt; margin-bottom: 0pt; margin-left: 0in; direction: ltr; unicode-bidi: embed; word-break: normal;&quot;&gt;API server&lt;/p&gt;&lt;br&gt;" style="rounded=0;whiteSpace=wrap;html=1;fillColor=#f8cecc;strokeColor=#b85450;" parent="1" vertex="1">
          <mxGeometry x="1159" y="102" width="120" height="60" as="geometry" />
        </mxCell>
        <mxCell id="lD57RcSdG65FDA6tdVYm-12" value="" style="endArrow=none;dashed=1;html=1;strokeWidth=1;rounded=0;fontSize=12;entryX=0.5;entryY=1;entryDx=0;entryDy=0;fontColor=#66FF66;strokeColor=#EA6B66;" parent="1" edge="1">
          <mxGeometry width="50" height="50" relative="1" as="geometry">
            <mxPoint x="295.42" y="1566" as="sourcePoint" />
            <mxPoint x="295" y="156" as="targetPoint" />
          </mxGeometry>
        </mxCell>
        <mxCell id="lD57RcSdG65FDA6tdVYm-13" value="" style="endArrow=none;dashed=1;html=1;strokeWidth=1;rounded=0;fontSize=12;entryX=0.5;entryY=1;entryDx=0;entryDy=0;fontColor=#66FF66;strokeColor=#EA6B66;" parent="1" edge="1">
          <mxGeometry width="50" height="50" relative="1" as="geometry">
            <mxPoint x="674.42" y="1570" as="sourcePoint" />
            <mxPoint x="673.9999999999999" y="160" as="targetPoint" />
          </mxGeometry>
        </mxCell>
        <mxCell id="lD57RcSdG65FDA6tdVYm-14" value="" style="endArrow=none;dashed=1;html=1;strokeWidth=1;rounded=0;fontSize=12;entryX=0.5;entryY=1;entryDx=0;entryDy=0;fontColor=#66FF66;strokeColor=#EA6B66;" parent="1" edge="1">
          <mxGeometry width="50" height="50" relative="1" as="geometry">
            <mxPoint x="839.4200000000001" y="1572" as="sourcePoint" />
            <mxPoint x="839" y="162" as="targetPoint" />
          </mxGeometry>
        </mxCell>
        <mxCell id="lD57RcSdG65FDA6tdVYm-15" value="" style="endArrow=none;dashed=1;html=1;strokeWidth=1;rounded=0;fontSize=12;entryX=0.5;entryY=1;entryDx=0;entryDy=0;fontColor=#66FF66;strokeColor=#EA6B66;" parent="1" edge="1">
          <mxGeometry width="50" height="50" relative="1" as="geometry">
            <mxPoint x="1222.42" y="1568" as="sourcePoint" />
            <mxPoint x="1222" y="158" as="targetPoint" />
          </mxGeometry>
        </mxCell>
        <mxCell id="2IYU9ypNfQQBlidGSXzQ-1" value="" style="shape=image;verticalLabelPosition=bottom;labelBackgroundColor=default;verticalAlign=top;aspect=fixed;imageAspect=0;image=data:image/png,iVBORw0KGgoAAAANSUhEUgAAAHMAAAAUCAYAAAC+sgIEAAAYMGlDQ1BJQ0MgUHJvZmlsZQAAWIWVWQdUFEuz7tnZTN4l55xBcs455wwisKQlSQYBRRBRgiKogKCoiEQVFQVUBEEMKEpQUBERRIKKAnpBJcgbgt77//ec987rc3rmm+rq6qrq7pquGQC4lHwjI8NQjACER8RGO5ga8Lu5e/DjpgABwEglAwlfSkykvp2dFUDK7/t/lsVBAK3fn8msy/p3+/9amPwDYigAQHYI9vOPoYQj+BoAaBVKZHQsAJgZhC6UEBuJYCyiJWCORhREsPA6DtrEauvYbxNbbfA4ORgi2AcAPK2vb3QQAPTrevHHU4IQOfS5SBspwp8agbCeQbAOJdjXHwDOUYRHOjx8J4K5aBEs7vcPOUH/IdPvj0xf36A/eNOWjYI3osZEhvnu+n+64/8u4WFxv8cQQiptcLSZw7rN634L3Wm5jhHdoYcRfja2CCYh+DnVf4N/HU8Gx5k5b/H/oMQYIj4DrACgaP19jSwRzI1gwYgwG6stuk4g1cQcwYjvUU7UWHOnzb4o/+idDlvyUYkBMcaOv7Fv9MZY6zzZcaHO+lsyy4IDzH/LvJkU7OS6qSeqN57qYoNgegQPx4Q6Wm7xfEwKNrT5zRMd57CuMzLnMAiMNnHY5IGFw2N+2wVrBFPNbbawVWywk9lmX9ib4ruhGzuCQwJi3Kx+6+kfYGS8aRecHhDhvKU/XBAZa+CwxV8RGWa3xQ+3BISZrtMFEfw0Jt7xd9+5WGSxbdqLBpGxdk6buqGZQ3wt7DZ1QEsCK2AIjAA/iEOqH9gJQgD16UzTDPK02WICfEE0CAIBQGaL8ruH60ZLBHJ1BEngM4ICQMyffgYbrQEgHqGv/qFuXmVA4EZr/EaPUDCJ4HBgCcKQ57iNXhF/RnMB7xEK9V+jUxBdw5C63vYvGj/DbxrWGGuENcOaYCXQnGgdtCbaCrnqIVUBrYZW/63X3/yYSUwf5h1mADOKebWDmh79X5rzA2swiuhosmWd3z+tQ4siUpXRBmhtRD4iG82K5gQyaCVkJH20LjK2MkL9p65xfyz+25dbsghyBBSBjaBHEP9vDegl6ZX/SFn31D99samX3x9vGf5p+W87DP/hP3/kbvnfnPBBuAF+ALfDXXAL3AT44Ta4Ge6Gb6/jP2vj/cba+D2aw4Y+oYgc6r/G890ac91rMXJ1ch/kVrbaQGxAYuz6ZjHcGbkrmhoUHMuvj0TrAH7zCIqsNL+CnIIiAOuxfzO0fHPYiOkQa8/fNMp+AFTnACAs/U0L/wbAZSIS+qz/pol4I9sHC0D1JCUuOn6Thl6/YAARMCA7hQPwIrFLHLFIAagATaAHjIEFsAVOwB14I34ORtZpNEgAKSANZIIccAQcByXgNDgHqsFFcBU0gRbQDu6Dx6AXDIDXyFqZAJ/AHFgEyxAE4SA6iAxxQHyQCCQFKUBqkA5kDFlBDpA75AMFQRFQHJQC7YNyoAKoBDoL1UBXoBtQO9QF9UGvoDHoA/QVWkLBKFoUM4oHJYrahlJD6aMsUU6o7aggVBQqCZWBOowqRpWjLqAaUe2ox6gB1CjqE2oBBjANzAoLwDKwGmwI28IecCAcDe+Bs+FCuBy+BN9EZvoZPArPwD/RWDQZzY+WQdarGdoZTUFHofegc9El6Gp0I7oT/Qw9hp5D/8LQYbgxUhgNjDnGDROEScBkYgoxlZjrmHvI3pnALGKxWFasGFYV2Xvu2BBsMjYXewpbj72D7cOOYxdwOBwHTgqnjbPF+eJicZm4E7gLuDZcP24C9wNPg+fDK+BN8B74CHw6vhBfi2/F9+On8MsERoIIQYNgS/An7CLkESoINwk9hAnCMpGJKEbUJjoRQ4hpxGLiJeI94jDxGw0NjSCNOo09DZVmL00xzWWahzRjND9pSbSStIa0XrRxtIdpq2jv0L6i/UZHRydKp0fnQRdLd5iuhu4u3QjdD3oyvSy9Ob0/fSp9KX0jfT/9FwYCgwiDPoM3QxJDIUMDQw/DDCOBUZTRkNGXcQ9jKeMNxheMC0xkJnkmW6ZwplymWqYupmkSjiRKMib5kzJI50h3SeNkmCxENiRTyPvIFeR75AlmLLMYszlzCHMO80Xmp8xzLCQWJRYXlkSWUpbbLKOsMKsoqzlrGGse61XWQdYlNh42fbYAtiy2S2z9bN/Zudj12APYs9nr2QfYlzj4OYw5QjnyOZo43nCiOSU57TkTOMs473HOcDFzaXJRuLK5rnINcaO4JbkduJO5z3F3cy/w8PKY8kTynOC5yzPDy8qrxxvCe4y3lfcDH5lPh4/Kd4yvje8jPwu/Pn8YfzF/J/+cALeAmUCcwFmBpwLLgmKCzoLpgvWCb4SIQmpCgULHhDqE5oT5hK2FU4TrhIdECCJqIsEiRSIPRL6Liom6ih4QbRKdFmMXMxdLEqsTGxanE9cVjxIvF38ugZVQkwiVOCXRK4mSVJYMliyV7JFCSalIUaVOSfVJY6TVpSOky6VfyNDK6MvEy9TJjMmyylrJpss2yX7ZJrzNY1v+tgfbfskpy4XJVci9lifJW8iny9+U/6ogqUBRKFV4rkinaKKYqtisOK8kpRSgVKb0UpmsbK18QLlDeVVFVSVa5ZLKB1VhVR/Vk6ov1JjV7NRy1R6qY9QN1FPVW9R/aqhoxGpc1ZjVlNEM1azVnNYS0wrQqtAa1xbU9tU+qz2qw6/jo3NGZ1RXQNdXt1z3nZ6Qnr9epd6UvoR+iP4F/S8GcgbRBtcNvhtqGO42vGMEG5kaZRs9NSYZOxuXGI+YCJoEmdSZzJkqmyab3jHDmFma5Zu9MOcxp5jXmM9ZqFrstui0pLV0tCyxfGclaRVtddMaZW1hfdR62EbEJsKmyRbYmtsetX1jJ2YXZXfLHmtvZ19qP+kg75Di8MCR7LjDsdZx0cnAKc/ptbO4c5xzhwuDi5dLjct3VyPXAtdRt21uu90eu3O6U92bPXAeLh6VHguexp7HPSe8lL0yvQa3i21P3N7lzekd5n17B8MO3x0NPhgfV59anxVfW99y3wU/c7+TfnMUQ0oR5ZO/nv8x/w8B2gEFAVOB2oEFgdNB2kFHgz4E6wYXBs9QDakl1PkQs5DTId9DbUOrQtfCXMPqw/HhPuE3IkgRoRGdO3l3Ju7si5SKzIwcjdKIOh41F20ZXRkDxWyPaY5lRg7Z3XHicfvjxuJ14kvjfyS4JDQkMiVGJHbvktyVtWsqySTpfDI6mZLckSKQkpYytlt/99k90B6/PR2pQqkZqRN7TfdWpxHTQtOepMulF6T/tc91380Mnoy9GeP7TffXZdJnRme+OKB54PRB9EHqwadZilknsn5l+2c/ypHLKcxZyaXkPjokf6j40NrhwMNP81Tyyo5gj0QcGczXza8uYCpIKhg/an208Rj/sexjfx3fcbyrUKnwdBGxKK5otNiquPmE8IkjJ1ZKgksGSg1K609yn8w6+f2U/6n+Mr2yS6d5TuecXjpDPfPyrOnZxnLR8sJz2HPx5yYrXCoenFc7X1PJWZlTuVoVUTVa7VDdWaNaU1PLXZtXh6qLq/twwetC70Wji82XZC6drWetz7kMLsdd/njF58rgVcurHQ1qDZeuiVw7eZ18PbsRatzVONcU3DTa7N7cd8PiRsdNzZvXb8neqmoRaCm9zXI7r5XYmtG61pbUtnAn8s5Me1D7eMeOjtd33e4+77TvfHrP8t7D+yb37z7Qf9D2UPthS5dG141Hao+aHqs8buxW7r7+RPnJ9acqTxt7VHuae9V7b/Zp9bX26/a3PzN6dv+5+fPHAzYDfYPOgy9feL0Yfen/cvpV2Kv5ofih5dd7hzHD2W8Y3xSOcI+Uv5V4Wz+qMnp7zGis+53ju9fjlPFP72Per0xkTNJNFk7xTdVMK0y3fDD50PvR8+PEp8hPyzOZn5k+n/wi/uXarN5s95zb3MR89Pza19xvHN+q/lL6q2PBbmFkMXxx+Xv2D44f1T/Vfj5Ycl2aWk5Ywa0Ur0qs3vxl+Wt4LXxtLdI32nfjKAAjFRUYCMDXKgDo3AEg9wJA9NzMzbYKjBw+UMjdBZKFPqEykDdqDzoTY4KFsY9xxfgIghVRggZHM0PbT9dEX8VQyVjP1EzqID9m7mV5yfqWbZr9E8c85xLXKg+KF8dH5KcTIAmShFiF2UXYRNnFuMV5JPgl+aUEpYVlRGXFtknLyckrKqgoaijpKhurmKuaq5mom2iYaBpq6Wtr6WjoKunJ6osa8BgyGxGN1oy/mUyavjLrNm+xqLY8apVqHWLjZmtsp2wv5sDlyOiEd4ZdIFeUG9qd4MHoyeElvF3GW2KHsA+fL6cfC4XsTwogB7IGcQULUqVDVENNwlzCqREpOwsiK6LORBfH5MfmxmXFZyccTizeVZ3Umvx6N9gjnbpj74m01/sEM3bubz+APSiUpZBtkOOYG3go6XB+XvWRO/lDBQvHmI7LFFoUBRbvO1FWcqO0/+T7UwuncWc4zkqWa52zrfA7H1u5v6qwurrmRu2juqELHy/+rMdfZrsiflW3wf1a1PWsxlNN9c1tN7pu9tzqbXl8u6P1SlvpndT2HR0ad0l3Jztv3Ku9f/JBzsPELr9H5o9lu+m7Z57ce3qyJ7LXoI/cN95/9Vnac/sBkUH04IcX3S/rXxUMxb52GVZ7w/lmZWTkbfvo+bGsdzvHnd9rTQgjq2xx6vn0tQ9FH1M/hc1QPlO+RM7mzF2fn/2m99fZRfL34p9SS09XUn9prK39Y/4V4Gl0AcYSy4J9g2vA5xKCiEY0krQMtCt0U/QvGV4yvmV6T/pM/sa8yLLKusy2yv6LY5Vzkesb9yzPJO8wXz//PYEbgpVCOcJhIlaikmIEsY/iXRI1ktlSVGlLGRlZOtnZbX1y1+SLFFIUKUr2ygYqCqoCaiS1NfUvGsOaXVqN2uU6uboJej76FgYKhpxGKKMPxk9NLpvmm8WYO1moWLJZLlu9tb5rU2ubb5dsH+jg6KjvJO8s4EJ2xbkuuX1yH/bo9rztVb/9jPfRHQd8Unyj/agUX3+PAKdA+yCbYEuqZYhZqGaYbLhABMtOmkhU5ErUj+ifMatxmHhSglCixi6npJjkwpSW3ZOpNHv50mTStffZZPjtT8g8dKDyYFvWUPb3XOZDCoft8yKOHMqvK3h49P2xtULOIuViuxOhJftLT59sPtVbNn3611nmcolz2hV25ymVcVUHqouRONddN3uRdEmx3vFy1JW8q3UNndeGr39twjZz3JC8qXHLosXtdmBrbFvqnbT2fR3772Z2Hrh38H72g9yHh7oOPTr0+FB37pOcp1k9B3oz+tL6dz+Lfx41sHMw8kXsy+RX+4eOvi4fbnhzf+TV289j4B1pXPC9/ITOpPmU3/SZD58/Kc8kf2798mtOcz7+66Vv7xfYFy2/p/5o+Dm1zL3isJr9q3Nr/o1R+vA2+Au6HXMA64gTx83jbxAyiQ403DQjtOfowunVGVAM7YwZTBYkBlIv+QizLQsDyxPWbDYTdoi9mSOCU4jzJVcOtw73Z55SXjPev/jK+M34vwgcE9QQHBbaLcwv3CriLbIiWiymJNYtHiC+InFUUkqyTcpRalI6TUZE5qVs7jaDbX/JVcl7KtAptClGKgko9SunqyiojKnmqWmrfVYv1TDXWNA8p2Wv9Uu7TsddF6d7XY+iT9K/YxBpyG/Ya5RurGQ8ZVJiaoucO26ZR1lIWby3LLPysGa1fmZTYOtgR7YbtD/h4O0o7PjR6YpzkouxK4PrkFule4yHgSet56DX6e3B3greyzvu+eT7evlJ+C1SOv2PBvgGKgahgwaDa6mpIU6h0mGYsLfhNyOKdyZEukZpRPPGoGNmYgfi2uPrE8oS83alJSUkh6b4796+xy3Vaa9Dmn26/T6HDKf97pnbDwQcDM2KyU7NOZhbcKjscE1e45G7+X0FI0e/HEcXShR5FR85ca9k+aTsKb+y46cfnVkpVzgXUFFyvqcKXa1Vk1BbX/fpouSlkPray7NXVRr2Xutu5GgKa+68yXcrteVdq1VbS7t8x4VOqXtXHhg8HHqU2M33pLfnUJ/TM9EBMPjp5fuhj2/AW5GxHeO1k5jppE/gc8Uc5ZvuotpP55Xi9fnf/Ea3XrAqABw/AMD6dxqHGgByLwAgtgsANiT3tKMDwEkdoARMAbTQASAL7T/vDwhJPImADHiAJFADZkh+GYbklEWgHnSBcbAKsUPKkCMUAx2HmqE3SM4njXJBpaHqUSMwA2wAJ8AX4UkkS/NCl6JfI5mYD+Y85jNWBZuGfYrjwYXj2vBkPBXfTuAkxBH6iYrEIuIKDYXmCa06bTUdO10uPYo+mf47QxzDImMSE8SUTWIlVZDVyL3MISw4lvOsxqyTbAfZpdh7OWI5OThbufy5abiv8njwwrwX+TyRjKBPIE/QVohJ6JlwkYinqIDopNgF8RgJDUlIsksqX9oTWZ1zsv3bWuQq5QsU9ihSlRyVNVT4VCHVUbUW9WMaIZraWvRaw9o1OrG6unp4vT79BoNrhk1GN41bTe6adpn1mA9ajFhOWc1bL9vi7VjtRR3UHK2cKM4pLsWurW7THmRPfa/I7eXeAz5EX32/ZEqz//dAtaDk4PYQYqhzWEX4wk6zyLKo2Rit2Jy4kQSlxCO75pNdU+7v0U5tTbNMH8/IytQ+CLL6ci4fOplXkG92FD52rzC/OKDE8KR0meAZkXKlCpvKqOrS2scXQb3qFZsG9+vBTSk3jt+6eru/bbGDt9PsfuzDM4+edq/2yPRtf3Z44M5L8hBl+OLIzBj3uNqE3pT8B/qPL2YOf9k22z5v9rXzL4WFksWlH/Y/zy/Nr2ispv66sxE/NuefhMy/BFAFJsAVhIA94BioA51gBPyAyJAcZANFQEegBugVCqAkkCw/HXUF9Q7J463gDLgNXkZro/ehuzHsmEBMI5aA9cY24hhxYbjHeGl8Hn6B4EW4T5QlFtHANFE0Y7TOtI/oDOla6bXobyNZ7ENGe8YRJE9dIx0jy5KfMEcgmWczqy8bDVszeyAHK8cDzl1c0lxj3EU8trx43g6+vfwGAliBJ4KFQr7CssIrIt2iZWJR4sYSXBJfJR9JnZNOlfGU1dwmIccuT5BfUZhVHFd6ofxI5ZbqBbUS9QMa0ZqeWobakjqMOgu6Q3qt+vUGVwwbjJqMb5m0mXaaPTLvtXhh+dZqynreZtkOb8/qIOao7mTt7O+y27XE7Yb7kMeql+B2C+/YHWd8evwgiop/REBN4GSwKDUk5EroUrhpROHO6Sit6N0xbXHoeKuEosTJJPXkwylTe4xTq9Po03ftm0LiSe9Bi6wHOWa53Ycd8kbzU4/yHrtTGFhMf6K51P8Uuez+md3lKue+nr9SFVejVYe9MHDp/OWUq17XVBrpm8ZvXLu177ZNG/udsY6azuj7Wg9xXYOPa57s7fHq03kmMsA0+PCl86uJ10lvmEeujjqNrYxXT7hPMUx3fTw4Y/mFcfbF/JlvIQsq31E/epZKV4J+KW7NPwywgHYjAogDFWQFuIFwsB+cBrfAELL/BSELKA6qgAZRNCgjZOd3wHjYHj4Nf0VboKswBEw05i3WCdntNrgBPAX/k1BIVCdO0Jyg1aMdpkum56fvYkhglGQcZzpN8iNLkL8zP2ApY01m82TX45DiZOei4UZxr/As8a7wAwEccgLlEZYV0RZ1EAsS3ytxQvI6knfPyTJuU5Bzld+jUKHYo7SsIqHqrlag3q/JrOWuXaEzq6etf8jgrZGicY7JmJmWeaHFVys764u2tHZh9o8cJZ1ynD+6WrjVehA8qV4PvEV37PeZ8DOkVAbAgf5Bd6miIZmh0+FWEfWRLFGJ0aOxRnGXEtgT9+z6lOyG7FOV1Ko0jvTDGej9KZlfD3pkXcley3U6VHV46Yhj/qWjxGPU4/eLpIpzT8yWup68XSZ6Oh+J/f7nus9rVlZVM9Uk1U5ecLzYUi96Oe/KYoP3tfuNMk1Hmudu2t+6dJvYGtjW2k7qCLjbeA993+5B6cPxRxKPqd2VT8Z6OHvt+/b3X3v2boA4KPfC4WX0q8NDNa/vDg+8mRyZf7syBr3DjWPfYyfAxNLk56mR6Scfmj+Wfzo4E/HZ+ovULG727VzzfNZXj28S377+1bKQvmj0Hfu980fqT82f80vnlz1WiCuNq5RfdL+urrmvz39MoKLCxusDojUAADOytvZNFABcAQCr+Wtry+Vra6vnkGRjGIA7YZv/fTbeNYwAnOFaR32XF/71/+V/ANkpxVnRwk3PAAADjElEQVRoBe2VzYvNURjH72hQmGJhoSGnaEqMFDuWs7URVtKUoth5y86xNwtLWfkbJAs2xEaJ7Nh4SRYk5aVohM/n3t9Tp1/3XrfMTNT51mfOc855znOe33POudPpVNUK1ArUCtQK1ArUCtQK1AosSQXWL+Iul4vYCXtf0f9XzDLHQTmNMzHRTC5IvQzyCz5CmcDdZsy5GVAWzb5sA9fIi6ZdRqts9Sll4qkZKO3SZxR7HU5PCkdtx0aRuY6N4viXPu0cB4WbYuIq9KvXoDVDxxOzcYgWJjY416yKjVbR94A8CBUHl7FdU8o5C7cHppsJ43no9kt7JX0v1GGYBOUes5BAxe3V9uNjP/3cRxljFiKG/RhzDxW5tOP7bbOgv7JNMAOxl5cgbOfM1zgqgd9qq8ocXRO+5qGtr0pg7aNemMMVRR/u1ZvdTPMe3HCuN9T52dhbaM/DPFgwxwfJQ18LO+Ae6P8VXsP3lr2B/jt4C2/AwprDI9gKFvETxHccx34O6gCc6Fqdzina22AMi2z/IXyAb6CegnNlfAtsbjdB/wlw7WNw3TNQe8G9p+E6PIB5UF7S012r9ydy9NCugd92BI6Be1wE4yy4Jolo8X2VM010b3sUzyFvT2yesPUP34w9BaVc6weqc+B8ggwqQQaVIIPK4D62rp+AUsbx1ofMc7zpJNoMjumnnUDF9xjT3DJE/IT9C3LTtte6n2M3wHwyGM+auC6+dQxblTnqkxxs5EXNYCzbBPoYw5h/lI7DtJzJS7AL7jSO92kPNrbrz4CvwWRewk44BMPky1Sre03375oBtgVQu+E7ZNgOvkjl61He8gtdq1fYV9g/IAqasW9BaGNjRC4xnjHK+PfoOzYG8epXYCv383Vugs+gjsJZcN/4hXKtKnP8Qj9yiF+AOcau6LgYSgT1dpQap+Ot8/ba7gPl7YmxeDWZsTgMzK6iuHbiZWoby1upwo5fBmP766Bsxbwskr7mVN7eTN+fsZB53QV9E5xsbPvmoPQxtzK+465zzPjOZyi/yRj7QXkokWt8S8R1bZmjl9+14r8uv8d97JtTggxlvegujsb6hO031sdt5CGL1r5MLm7vYzE8oJAFGSZjlgfS9m3Hb/fb/u1+P/92ju019vut6+f3X475wqdHyNyXWSp+esux0jamL2Mp1c5xKfeue9UK1ArUCtQK1ArUCtQK1ArUCvzjFfgN7am+ylMM2v8AAAAASUVORK5CYII=;" parent="1" vertex="1">
          <mxGeometry x="-106" y="217" width="115" height="20" as="geometry" />
        </mxCell>
        <mxCell id="2IYU9ypNfQQBlidGSXzQ-6" value="" style="shape=image;verticalLabelPosition=bottom;labelBackgroundColor=default;verticalAlign=top;aspect=fixed;imageAspect=0;image=data:image/png,iVBORw0KGgoAAAANSUhEUgAAAHEAAAATCAYAAACnQuKBAAAYMGlDQ1BJQ0MgUHJvZmlsZQAAWIWVWQdUFEuz7tnZTN4l55xBcs455wwisKQlSQYBRRBRgiKogKCoiEQVFQVUBEEMKEpQUBERRIKKAnpBJcgbgt77//ec987rc3rmm+rq6qrq7pquGQC4lHwjI8NQjACER8RGO5ga8Lu5e/DjpgABwEglAwlfSkykvp2dFUDK7/t/lsVBAK3fn8msy/p3+/9amPwDYigAQHYI9vOPoYQj+BoAaBVKZHQsAJgZhC6UEBuJYCyiJWCORhREsPA6DtrEauvYbxNbbfA4ORgi2AcAPK2vb3QQAPTrevHHU4IQOfS5SBspwp8agbCeQbAOJdjXHwDOUYRHOjx8J4K5aBEs7vcPOUH/IdPvj0xf36A/eNOWjYI3osZEhvnu+n+64/8u4WFxv8cQQiptcLSZw7rN634L3Wm5jhHdoYcRfja2CCYh+DnVf4N/HU8Gx5k5b/H/oMQYIj4DrACgaP19jSwRzI1gwYgwG6stuk4g1cQcwYjvUU7UWHOnzb4o/+idDlvyUYkBMcaOv7Fv9MZY6zzZcaHO+lsyy4IDzH/LvJkU7OS6qSeqN57qYoNgegQPx4Q6Wm7xfEwKNrT5zRMd57CuMzLnMAiMNnHY5IGFw2N+2wVrBFPNbbawVWywk9lmX9ib4ruhGzuCQwJi3Kx+6+kfYGS8aRecHhDhvKU/XBAZa+CwxV8RGWa3xQ+3BISZrtMFEfw0Jt7xd9+5WGSxbdqLBpGxdk6buqGZQ3wt7DZ1QEsCK2AIjAA/iEOqH9gJQgD16UzTDPK02WICfEE0CAIBQGaL8ruH60ZLBHJ1BEngM4ICQMyffgYbrQEgHqGv/qFuXmVA4EZr/EaPUDCJ4HBgCcKQ57iNXhF/RnMB7xEK9V+jUxBdw5C63vYvGj/DbxrWGGuENcOaYCXQnGgdtCbaCrnqIVUBrYZW/63X3/yYSUwf5h1mADOKebWDmh79X5rzA2swiuhosmWd3z+tQ4siUpXRBmhtRD4iG82K5gQyaCVkJH20LjK2MkL9p65xfyz+25dbsghyBBSBjaBHEP9vDegl6ZX/SFn31D99samX3x9vGf5p+W87DP/hP3/kbvnfnPBBuAF+ALfDXXAL3AT44Ta4Ge6Gb6/jP2vj/cba+D2aw4Y+oYgc6r/G890ac91rMXJ1ch/kVrbaQGxAYuz6ZjHcGbkrmhoUHMuvj0TrAH7zCIqsNL+CnIIiAOuxfzO0fHPYiOkQa8/fNMp+AFTnACAs/U0L/wbAZSIS+qz/pol4I9sHC0D1JCUuOn6Thl6/YAARMCA7hQPwIrFLHLFIAagATaAHjIEFsAVOwB14I34ORtZpNEgAKSANZIIccAQcByXgNDgHqsFFcBU0gRbQDu6Dx6AXDIDXyFqZAJ/AHFgEyxAE4SA6iAxxQHyQCCQFKUBqkA5kDFlBDpA75AMFQRFQHJQC7YNyoAKoBDoL1UBXoBtQO9QF9UGvoDHoA/QVWkLBKFoUM4oHJYrahlJD6aMsUU6o7aggVBQqCZWBOowqRpWjLqAaUe2ox6gB1CjqE2oBBjANzAoLwDKwGmwI28IecCAcDe+Bs+FCuBy+BN9EZvoZPArPwD/RWDQZzY+WQdarGdoZTUFHofegc9El6Gp0I7oT/Qw9hp5D/8LQYbgxUhgNjDnGDROEScBkYgoxlZjrmHvI3pnALGKxWFasGFYV2Xvu2BBsMjYXewpbj72D7cOOYxdwOBwHTgqnjbPF+eJicZm4E7gLuDZcP24C9wNPg+fDK+BN8B74CHw6vhBfi2/F9+On8MsERoIIQYNgS/An7CLkESoINwk9hAnCMpGJKEbUJjoRQ4hpxGLiJeI94jDxGw0NjSCNOo09DZVmL00xzWWahzRjND9pSbSStIa0XrRxtIdpq2jv0L6i/UZHRydKp0fnQRdLd5iuhu4u3QjdD3oyvSy9Ob0/fSp9KX0jfT/9FwYCgwiDPoM3QxJDIUMDQw/DDCOBUZTRkNGXcQ9jKeMNxheMC0xkJnkmW6ZwplymWqYupmkSjiRKMib5kzJI50h3SeNkmCxENiRTyPvIFeR75AlmLLMYszlzCHMO80Xmp8xzLCQWJRYXlkSWUpbbLKOsMKsoqzlrGGse61XWQdYlNh42fbYAtiy2S2z9bN/Zudj12APYs9nr2QfYlzj4OYw5QjnyOZo43nCiOSU57TkTOMs473HOcDFzaXJRuLK5rnINcaO4JbkduJO5z3F3cy/w8PKY8kTynOC5yzPDy8qrxxvCe4y3lfcDH5lPh4/Kd4yvje8jPwu/Pn8YfzF/J/+cALeAmUCcwFmBpwLLgmKCzoLpgvWCb4SIQmpCgULHhDqE5oT5hK2FU4TrhIdECCJqIsEiRSIPRL6Liom6ih4QbRKdFmMXMxdLEqsTGxanE9cVjxIvF38ugZVQkwiVOCXRK4mSVJYMliyV7JFCSalIUaVOSfVJY6TVpSOky6VfyNDK6MvEy9TJjMmyylrJpss2yX7ZJrzNY1v+tgfbfskpy4XJVci9lifJW8iny9+U/6ogqUBRKFV4rkinaKKYqtisOK8kpRSgVKb0UpmsbK18QLlDeVVFVSVa5ZLKB1VhVR/Vk6ov1JjV7NRy1R6qY9QN1FPVW9R/aqhoxGpc1ZjVlNEM1azVnNYS0wrQqtAa1xbU9tU+qz2qw6/jo3NGZ1RXQNdXt1z3nZ6Qnr9epd6UvoR+iP4F/S8GcgbRBtcNvhtqGO42vGMEG5kaZRs9NSYZOxuXGI+YCJoEmdSZzJkqmyab3jHDmFma5Zu9MOcxp5jXmM9ZqFrstui0pLV0tCyxfGclaRVtddMaZW1hfdR62EbEJsKmyRbYmtsetX1jJ2YXZXfLHmtvZ19qP+kg75Di8MCR7LjDsdZx0cnAKc/ptbO4c5xzhwuDi5dLjct3VyPXAtdRt21uu90eu3O6U92bPXAeLh6VHguexp7HPSe8lL0yvQa3i21P3N7lzekd5n17B8MO3x0NPhgfV59anxVfW99y3wU/c7+TfnMUQ0oR5ZO/nv8x/w8B2gEFAVOB2oEFgdNB2kFHgz4E6wYXBs9QDakl1PkQs5DTId9DbUOrQtfCXMPqw/HhPuE3IkgRoRGdO3l3Ju7si5SKzIwcjdKIOh41F20ZXRkDxWyPaY5lRg7Z3XHicfvjxuJ14kvjfyS4JDQkMiVGJHbvktyVtWsqySTpfDI6mZLckSKQkpYytlt/99k90B6/PR2pQqkZqRN7TfdWpxHTQtOepMulF6T/tc91380Mnoy9GeP7TffXZdJnRme+OKB54PRB9EHqwadZilknsn5l+2c/ypHLKcxZyaXkPjokf6j40NrhwMNP81Tyyo5gj0QcGczXza8uYCpIKhg/an208Rj/sexjfx3fcbyrUKnwdBGxKK5otNiquPmE8IkjJ1ZKgksGSg1K609yn8w6+f2U/6n+Mr2yS6d5TuecXjpDPfPyrOnZxnLR8sJz2HPx5yYrXCoenFc7X1PJWZlTuVoVUTVa7VDdWaNaU1PLXZtXh6qLq/twwetC70Wji82XZC6drWetz7kMLsdd/njF58rgVcurHQ1qDZeuiVw7eZ18PbsRatzVONcU3DTa7N7cd8PiRsdNzZvXb8neqmoRaCm9zXI7r5XYmtG61pbUtnAn8s5Me1D7eMeOjtd33e4+77TvfHrP8t7D+yb37z7Qf9D2UPthS5dG141Hao+aHqs8buxW7r7+RPnJ9acqTxt7VHuae9V7b/Zp9bX26/a3PzN6dv+5+fPHAzYDfYPOgy9feL0Yfen/cvpV2Kv5ofih5dd7hzHD2W8Y3xSOcI+Uv5V4Wz+qMnp7zGis+53ju9fjlPFP72Per0xkTNJNFk7xTdVMK0y3fDD50PvR8+PEp8hPyzOZn5k+n/wi/uXarN5s95zb3MR89Pza19xvHN+q/lL6q2PBbmFkMXxx+Xv2D44f1T/Vfj5Ycl2aWk5Ywa0Ur0qs3vxl+Wt4LXxtLdI32nfjKAAjFRUYCMDXKgDo3AEg9wJA9NzMzbYKjBw+UMjdBZKFPqEykDdqDzoTY4KFsY9xxfgIghVRggZHM0PbT9dEX8VQyVjP1EzqID9m7mV5yfqWbZr9E8c85xLXKg+KF8dH5KcTIAmShFiF2UXYRNnFuMV5JPgl+aUEpYVlRGXFtknLyckrKqgoaijpKhurmKuaq5mom2iYaBpq6Wtr6WjoKunJ6osa8BgyGxGN1oy/mUyavjLrNm+xqLY8apVqHWLjZmtsp2wv5sDlyOiEd4ZdIFeUG9qd4MHoyeElvF3GW2KHsA+fL6cfC4XsTwogB7IGcQULUqVDVENNwlzCqREpOwsiK6LORBfH5MfmxmXFZyccTizeVZ3Umvx6N9gjnbpj74m01/sEM3bubz+APSiUpZBtkOOYG3go6XB+XvWRO/lDBQvHmI7LFFoUBRbvO1FWcqO0/+T7UwuncWc4zkqWa52zrfA7H1u5v6qwurrmRu2juqELHy/+rMdfZrsiflW3wf1a1PWsxlNN9c1tN7pu9tzqbXl8u6P1SlvpndT2HR0ad0l3Jztv3Ku9f/JBzsPELr9H5o9lu+m7Z57ce3qyJ7LXoI/cN95/9Vnac/sBkUH04IcX3S/rXxUMxb52GVZ7w/lmZWTkbfvo+bGsdzvHnd9rTQgjq2xx6vn0tQ9FH1M/hc1QPlO+RM7mzF2fn/2m99fZRfL34p9SS09XUn9prK39Y/4V4Gl0AcYSy4J9g2vA5xKCiEY0krQMtCt0U/QvGV4yvmV6T/pM/sa8yLLKusy2yv6LY5Vzkesb9yzPJO8wXz//PYEbgpVCOcJhIlaikmIEsY/iXRI1ktlSVGlLGRlZOtnZbX1y1+SLFFIUKUr2ygYqCqoCaiS1NfUvGsOaXVqN2uU6uboJej76FgYKhpxGKKMPxk9NLpvmm8WYO1moWLJZLlu9tb5rU2ubb5dsH+jg6KjvJO8s4EJ2xbkuuX1yH/bo9rztVb/9jPfRHQd8Unyj/agUX3+PAKdA+yCbYEuqZYhZqGaYbLhABMtOmkhU5ErUj+ifMatxmHhSglCixi6npJjkwpSW3ZOpNHv50mTStffZZPjtT8g8dKDyYFvWUPb3XOZDCoft8yKOHMqvK3h49P2xtULOIuViuxOhJftLT59sPtVbNn3611nmcolz2hV25ymVcVUHqouRONddN3uRdEmx3vFy1JW8q3UNndeGr39twjZz3JC8qXHLosXtdmBrbFvqnbT2fR3772Z2Hrh38H72g9yHh7oOPTr0+FB37pOcp1k9B3oz+tL6dz+Lfx41sHMw8kXsy+RX+4eOvi4fbnhzf+TV289j4B1pXPC9/ITOpPmU3/SZD58/Kc8kf2798mtOcz7+66Vv7xfYFy2/p/5o+Dm1zL3isJr9q3Nr/o1R+vA2+Au6HXMA64gTx83jbxAyiQ403DQjtOfowunVGVAM7YwZTBYkBlIv+QizLQsDyxPWbDYTdoi9mSOCU4jzJVcOtw73Z55SXjPev/jK+M34vwgcE9QQHBbaLcwv3CriLbIiWiymJNYtHiC+InFUUkqyTcpRalI6TUZE5qVs7jaDbX/JVcl7KtAptClGKgko9SunqyiojKnmqWmrfVYv1TDXWNA8p2Wv9Uu7TsddF6d7XY+iT9K/YxBpyG/Ya5RurGQ8ZVJiaoucO26ZR1lIWby3LLPysGa1fmZTYOtgR7YbtD/h4O0o7PjR6YpzkouxK4PrkFule4yHgSet56DX6e3B3greyzvu+eT7evlJ+C1SOv2PBvgGKgahgwaDa6mpIU6h0mGYsLfhNyOKdyZEukZpRPPGoGNmYgfi2uPrE8oS83alJSUkh6b4796+xy3Vaa9Dmn26/T6HDKf97pnbDwQcDM2KyU7NOZhbcKjscE1e45G7+X0FI0e/HEcXShR5FR85ca9k+aTsKb+y46cfnVkpVzgXUFFyvqcKXa1Vk1BbX/fpouSlkPray7NXVRr2Xutu5GgKa+68yXcrteVdq1VbS7t8x4VOqXtXHhg8HHqU2M33pLfnUJ/TM9EBMPjp5fuhj2/AW5GxHeO1k5jppE/gc8Uc5ZvuotpP55Xi9fnf/Ea3XrAqABw/AMD6dxqHGgByLwAgtgsANiT3tKMDwEkdoARMAbTQASAL7T/vDwhJPImADHiAJFADZkh+GYbklEWgHnSBcbAKsUPKkCMUAx2HmqE3SM4njXJBpaHqUSMwA2wAJ8AX4UkkS/NCl6JfI5mYD+Y85jNWBZuGfYrjwYXj2vBkPBXfTuAkxBH6iYrEIuIKDYXmCa06bTUdO10uPYo+mf47QxzDImMSE8SUTWIlVZDVyL3MISw4lvOsxqyTbAfZpdh7OWI5OThbufy5abiv8njwwrwX+TyRjKBPIE/QVohJ6JlwkYinqIDopNgF8RgJDUlIsksqX9oTWZ1zsv3bWuQq5QsU9ihSlRyVNVT4VCHVUbUW9WMaIZraWvRaw9o1OrG6unp4vT79BoNrhk1GN41bTe6adpn1mA9ajFhOWc1bL9vi7VjtRR3UHK2cKM4pLsWurW7THmRPfa/I7eXeAz5EX32/ZEqz//dAtaDk4PYQYqhzWEX4wk6zyLKo2Rit2Jy4kQSlxCO75pNdU+7v0U5tTbNMH8/IytQ+CLL6ci4fOplXkG92FD52rzC/OKDE8KR0meAZkXKlCpvKqOrS2scXQb3qFZsG9+vBTSk3jt+6eru/bbGDt9PsfuzDM4+edq/2yPRtf3Z44M5L8hBl+OLIzBj3uNqE3pT8B/qPL2YOf9k22z5v9rXzL4WFksWlH/Y/zy/Nr2ispv66sxE/NuefhMy/BFAFJsAVhIA94BioA51gBPyAyJAcZANFQEegBugVCqAkkCw/HXUF9Q7J463gDLgNXkZro/ehuzHsmEBMI5aA9cY24hhxYbjHeGl8Hn6B4EW4T5QlFtHANFE0Y7TOtI/oDOla6bXobyNZ7ENGe8YRJE9dIx0jy5KfMEcgmWczqy8bDVszeyAHK8cDzl1c0lxj3EU8trx43g6+vfwGAliBJ4KFQr7CssIrIt2iZWJR4sYSXBJfJR9JnZNOlfGU1dwmIccuT5BfUZhVHFd6ofxI5ZbqBbUS9QMa0ZqeWobakjqMOgu6Q3qt+vUGVwwbjJqMb5m0mXaaPTLvtXhh+dZqynreZtkOb8/qIOao7mTt7O+y27XE7Yb7kMeql+B2C+/YHWd8evwgiop/REBN4GSwKDUk5EroUrhpROHO6Sit6N0xbXHoeKuEosTJJPXkwylTe4xTq9Po03ftm0LiSe9Bi6wHOWa53Ycd8kbzU4/yHrtTGFhMf6K51P8Uuez+md3lKue+nr9SFVejVYe9MHDp/OWUq17XVBrpm8ZvXLu177ZNG/udsY6azuj7Wg9xXYOPa57s7fHq03kmMsA0+PCl86uJ10lvmEeujjqNrYxXT7hPMUx3fTw4Y/mFcfbF/JlvIQsq31E/epZKV4J+KW7NPwywgHYjAogDFWQFuIFwsB+cBrfAELL/BSELKA6qgAZRNCgjZOd3wHjYHj4Nf0VboKswBEw05i3WCdntNrgBPAX/k1BIVCdO0Jyg1aMdpkum56fvYkhglGQcZzpN8iNLkL8zP2ApY01m82TX45DiZOei4UZxr/As8a7wAwEccgLlEZYV0RZ1EAsS3ytxQvI6knfPyTJuU5Bzld+jUKHYo7SsIqHqrlag3q/JrOWuXaEzq6etf8jgrZGicY7JmJmWeaHFVys764u2tHZh9o8cJZ1ynD+6WrjVehA8qV4PvEV37PeZ8DOkVAbAgf5Bd6miIZmh0+FWEfWRLFGJ0aOxRnGXEtgT9+z6lOyG7FOV1Ko0jvTDGej9KZlfD3pkXcley3U6VHV46Yhj/qWjxGPU4/eLpIpzT8yWup68XSZ6Oh+J/f7nus9rVlZVM9Uk1U5ecLzYUi96Oe/KYoP3tfuNMk1Hmudu2t+6dJvYGtjW2k7qCLjbeA993+5B6cPxRxKPqd2VT8Z6OHvt+/b3X3v2boA4KPfC4WX0q8NDNa/vDg+8mRyZf7syBr3DjWPfYyfAxNLk56mR6Scfmj+Wfzo4E/HZ+ovULG727VzzfNZXj28S377+1bKQvmj0Hfu980fqT82f80vnlz1WiCuNq5RfdL+urrmvz39MoKLCxusDojUAADOytvZNFABcAQCr+Wtry+Vra6vnkGRjGIA7YZv/fTbeNYwAnOFaR32XF/71/+V/ANkpxVnRwk3PAAADbklEQVRoBe2Uv2+NURjHb6Wp+HEThk4Mp4kwSDeTsHUQSSeJjVwTsRgwWc4iMTBYCLOwEv6BNmbpYBJybUYiDAzq83l7nnp73bS3V0kT55t83/M85zy/3/O+nU5FnUCdQJ1AnUCdQJ3A/zyBAzS/e4wBdPHZMYbfZlyMb56d0Dr/GBNEWIZ9uAQn4XbBLIVYm03Lj0W/zSochOcJDiL8BveH6Q7SgYoH8HAjjfawBue2GSSMzRM9beir4XrwJX6CM/AhvAWFt7gHp6Hw5fZggsLGj8ETKgXu9aCNCX33w7MwLod6D4ZNQm6fo65icVXqdC4hX4TWexXq73oBTsE2zPEC/oC+HONbq1CPLzRe1mv2bkLrfQuPw3kYNZtTvd1rKnvfWc9BMQfNEzNLyO3ejGec0/ADtL6XMOwRx4Mv2Vs7C/swQRt1z+DudaFfgTYWGj4W6C20Oc+0sQl9HVSG+vfK6jA8S1B7uQB9+e63kVGM5bn5nkOHIDLUV/giQm42yl58rZfRE9Q/chpXmNPY9pCh/Wrvvr31obAvdWM+htH/deS9MGo3rrbuD+st4oYNZmt6UR8LUVAUb5AETZjL6qCUbaoL9VEWCfprsEFloWwTGSYoLFzoF4PIyO5rbz7jCi9A6J77ZTloL5fI0Phi2Et0iHPN6a/L5EvMsG1vLebUPkGRYYLC3J5H7RPIUZe+on2u7LnIsN3bZNFZmktrz8Lc1rQuDLwR3mNwD96B81Aswgwt/E2Rj7J+hiI1z07nEKu/hi/wYNk7wvqtyFNljWUGwVyPysZ51mvQOv29CF/WE3gf7oM34FN4Eoor8F0jrTwiV2w9QzhVlK+s9nW36C5nipzK6tKusy17Zg1i18rSPGOvtdV5hRIzcH+wt/BxBs5L7IH2+0dweHHTui15AXmp6NooS2/QBPTGBS1Cqveht15kmKBwXxtzKfsLDt244YO4BtqaL77OZeQMhX8Az43p7y4wjWD9wnqNr5+3frLI+kl780v33BgZJig8F/qZQ5sE9YmzkF09N5d1Dest/jjaGFPYt/X+NTi8NkK34Hjx7XPlsBncX0/fjM+otg7UOsWoPivWW/sczN3W48VvbcYRo1lI/HZHdPnnZomMfr3bGdaXtnOBtbY6gTqBOoE6gTqBOoE6gTqBOoHfJ/ATxj62qDZdCewAAAAASUVORK5CYII=;" parent="1" vertex="1">
          <mxGeometry x="122" y="277.5" width="113" height="19" as="geometry" />
        </mxCell>
        <mxCell id="2IYU9ypNfQQBlidGSXzQ-7" value="" style="shape=image;verticalLabelPosition=bottom;labelBackgroundColor=default;verticalAlign=top;aspect=fixed;imageAspect=0;image=data:image/png,iVBORw0KGgoAAAANSUhEUgAAAJkAAAAUCAYAAACecp+8AAAYMGlDQ1BJQ0MgUHJvZmlsZQAAWIWVWQdUFEuz7tnZTN4l55xBcs455wwisKQlSQYBRRBRgiKogKCoiEQVFQVUBEEMKEpQUBERRIKKAnpBJcgbgt77//ec987rc3rmm+rq6qrq7pquGQC4lHwjI8NQjACER8RGO5ga8Lu5e/DjpgABwEglAwlfSkykvp2dFUDK7/t/lsVBAK3fn8msy/p3+/9amPwDYigAQHYI9vOPoYQj+BoAaBVKZHQsAJgZhC6UEBuJYCyiJWCORhREsPA6DtrEauvYbxNbbfA4ORgi2AcAPK2vb3QQAPTrevHHU4IQOfS5SBspwp8agbCeQbAOJdjXHwDOUYRHOjx8J4K5aBEs7vcPOUH/IdPvj0xf36A/eNOWjYI3osZEhvnu+n+64/8u4WFxv8cQQiptcLSZw7rN634L3Wm5jhHdoYcRfja2CCYh+DnVf4N/HU8Gx5k5b/H/oMQYIj4DrACgaP19jSwRzI1gwYgwG6stuk4g1cQcwYjvUU7UWHOnzb4o/+idDlvyUYkBMcaOv7Fv9MZY6zzZcaHO+lsyy4IDzH/LvJkU7OS6qSeqN57qYoNgegQPx4Q6Wm7xfEwKNrT5zRMd57CuMzLnMAiMNnHY5IGFw2N+2wVrBFPNbbawVWywk9lmX9ib4ruhGzuCQwJi3Kx+6+kfYGS8aRecHhDhvKU/XBAZa+CwxV8RGWa3xQ+3BISZrtMFEfw0Jt7xd9+5WGSxbdqLBpGxdk6buqGZQ3wt7DZ1QEsCK2AIjAA/iEOqH9gJQgD16UzTDPK02WICfEE0CAIBQGaL8ruH60ZLBHJ1BEngM4ICQMyffgYbrQEgHqGv/qFuXmVA4EZr/EaPUDCJ4HBgCcKQ57iNXhF/RnMB7xEK9V+jUxBdw5C63vYvGj/DbxrWGGuENcOaYCXQnGgdtCbaCrnqIVUBrYZW/63X3/yYSUwf5h1mADOKebWDmh79X5rzA2swiuhosmWd3z+tQ4siUpXRBmhtRD4iG82K5gQyaCVkJH20LjK2MkL9p65xfyz+25dbsghyBBSBjaBHEP9vDegl6ZX/SFn31D99samX3x9vGf5p+W87DP/hP3/kbvnfnPBBuAF+ALfDXXAL3AT44Ta4Ge6Gb6/jP2vj/cba+D2aw4Y+oYgc6r/G890ac91rMXJ1ch/kVrbaQGxAYuz6ZjHcGbkrmhoUHMuvj0TrAH7zCIqsNL+CnIIiAOuxfzO0fHPYiOkQa8/fNMp+AFTnACAs/U0L/wbAZSIS+qz/pol4I9sHC0D1JCUuOn6Thl6/YAARMCA7hQPwIrFLHLFIAagATaAHjIEFsAVOwB14I34ORtZpNEgAKSANZIIccAQcByXgNDgHqsFFcBU0gRbQDu6Dx6AXDIDXyFqZAJ/AHFgEyxAE4SA6iAxxQHyQCCQFKUBqkA5kDFlBDpA75AMFQRFQHJQC7YNyoAKoBDoL1UBXoBtQO9QF9UGvoDHoA/QVWkLBKFoUM4oHJYrahlJD6aMsUU6o7aggVBQqCZWBOowqRpWjLqAaUe2ox6gB1CjqE2oBBjANzAoLwDKwGmwI28IecCAcDe+Bs+FCuBy+BN9EZvoZPArPwD/RWDQZzY+WQdarGdoZTUFHofegc9El6Gp0I7oT/Qw9hp5D/8LQYbgxUhgNjDnGDROEScBkYgoxlZjrmHvI3pnALGKxWFasGFYV2Xvu2BBsMjYXewpbj72D7cOOYxdwOBwHTgqnjbPF+eJicZm4E7gLuDZcP24C9wNPg+fDK+BN8B74CHw6vhBfi2/F9+On8MsERoIIQYNgS/An7CLkESoINwk9hAnCMpGJKEbUJjoRQ4hpxGLiJeI94jDxGw0NjSCNOo09DZVmL00xzWWahzRjND9pSbSStIa0XrRxtIdpq2jv0L6i/UZHRydKp0fnQRdLd5iuhu4u3QjdD3oyvSy9Ob0/fSp9KX0jfT/9FwYCgwiDPoM3QxJDIUMDQw/DDCOBUZTRkNGXcQ9jKeMNxheMC0xkJnkmW6ZwplymWqYupmkSjiRKMib5kzJI50h3SeNkmCxENiRTyPvIFeR75AlmLLMYszlzCHMO80Xmp8xzLCQWJRYXlkSWUpbbLKOsMKsoqzlrGGse61XWQdYlNh42fbYAtiy2S2z9bN/Zudj12APYs9nr2QfYlzj4OYw5QjnyOZo43nCiOSU57TkTOMs473HOcDFzaXJRuLK5rnINcaO4JbkduJO5z3F3cy/w8PKY8kTynOC5yzPDy8qrxxvCe4y3lfcDH5lPh4/Kd4yvje8jPwu/Pn8YfzF/J/+cALeAmUCcwFmBpwLLgmKCzoLpgvWCb4SIQmpCgULHhDqE5oT5hK2FU4TrhIdECCJqIsEiRSIPRL6Liom6ih4QbRKdFmMXMxdLEqsTGxanE9cVjxIvF38ugZVQkwiVOCXRK4mSVJYMliyV7JFCSalIUaVOSfVJY6TVpSOky6VfyNDK6MvEy9TJjMmyylrJpss2yX7ZJrzNY1v+tgfbfskpy4XJVci9lifJW8iny9+U/6ogqUBRKFV4rkinaKKYqtisOK8kpRSgVKb0UpmsbK18QLlDeVVFVSVa5ZLKB1VhVR/Vk6ov1JjV7NRy1R6qY9QN1FPVW9R/aqhoxGpc1ZjVlNEM1azVnNYS0wrQqtAa1xbU9tU+qz2qw6/jo3NGZ1RXQNdXt1z3nZ6Qnr9epd6UvoR+iP4F/S8GcgbRBtcNvhtqGO42vGMEG5kaZRs9NSYZOxuXGI+YCJoEmdSZzJkqmyab3jHDmFma5Zu9MOcxp5jXmM9ZqFrstui0pLV0tCyxfGclaRVtddMaZW1hfdR62EbEJsKmyRbYmtsetX1jJ2YXZXfLHmtvZ19qP+kg75Di8MCR7LjDsdZx0cnAKc/ptbO4c5xzhwuDi5dLjct3VyPXAtdRt21uu90eu3O6U92bPXAeLh6VHguexp7HPSe8lL0yvQa3i21P3N7lzekd5n17B8MO3x0NPhgfV59anxVfW99y3wU/c7+TfnMUQ0oR5ZO/nv8x/w8B2gEFAVOB2oEFgdNB2kFHgz4E6wYXBs9QDakl1PkQs5DTId9DbUOrQtfCXMPqw/HhPuE3IkgRoRGdO3l3Ju7si5SKzIwcjdKIOh41F20ZXRkDxWyPaY5lRg7Z3XHicfvjxuJ14kvjfyS4JDQkMiVGJHbvktyVtWsqySTpfDI6mZLckSKQkpYytlt/99k90B6/PR2pQqkZqRN7TfdWpxHTQtOepMulF6T/tc91380Mnoy9GeP7TffXZdJnRme+OKB54PRB9EHqwadZilknsn5l+2c/ypHLKcxZyaXkPjokf6j40NrhwMNP81Tyyo5gj0QcGczXza8uYCpIKhg/an208Rj/sexjfx3fcbyrUKnwdBGxKK5otNiquPmE8IkjJ1ZKgksGSg1K609yn8w6+f2U/6n+Mr2yS6d5TuecXjpDPfPyrOnZxnLR8sJz2HPx5yYrXCoenFc7X1PJWZlTuVoVUTVa7VDdWaNaU1PLXZtXh6qLq/twwetC70Wji82XZC6drWetz7kMLsdd/njF58rgVcurHQ1qDZeuiVw7eZ18PbsRatzVONcU3DTa7N7cd8PiRsdNzZvXb8neqmoRaCm9zXI7r5XYmtG61pbUtnAn8s5Me1D7eMeOjtd33e4+77TvfHrP8t7D+yb37z7Qf9D2UPthS5dG141Hao+aHqs8buxW7r7+RPnJ9acqTxt7VHuae9V7b/Zp9bX26/a3PzN6dv+5+fPHAzYDfYPOgy9feL0Yfen/cvpV2Kv5ofih5dd7hzHD2W8Y3xSOcI+Uv5V4Wz+qMnp7zGis+53ju9fjlPFP72Per0xkTNJNFk7xTdVMK0y3fDD50PvR8+PEp8hPyzOZn5k+n/wi/uXarN5s95zb3MR89Pza19xvHN+q/lL6q2PBbmFkMXxx+Xv2D44f1T/Vfj5Ycl2aWk5Ywa0Ur0qs3vxl+Wt4LXxtLdI32nfjKAAjFRUYCMDXKgDo3AEg9wJA9NzMzbYKjBw+UMjdBZKFPqEykDdqDzoTY4KFsY9xxfgIghVRggZHM0PbT9dEX8VQyVjP1EzqID9m7mV5yfqWbZr9E8c85xLXKg+KF8dH5KcTIAmShFiF2UXYRNnFuMV5JPgl+aUEpYVlRGXFtknLyckrKqgoaijpKhurmKuaq5mom2iYaBpq6Wtr6WjoKunJ6osa8BgyGxGN1oy/mUyavjLrNm+xqLY8apVqHWLjZmtsp2wv5sDlyOiEd4ZdIFeUG9qd4MHoyeElvF3GW2KHsA+fL6cfC4XsTwogB7IGcQULUqVDVENNwlzCqREpOwsiK6LORBfH5MfmxmXFZyccTizeVZ3Umvx6N9gjnbpj74m01/sEM3bubz+APSiUpZBtkOOYG3go6XB+XvWRO/lDBQvHmI7LFFoUBRbvO1FWcqO0/+T7UwuncWc4zkqWa52zrfA7H1u5v6qwurrmRu2juqELHy/+rMdfZrsiflW3wf1a1PWsxlNN9c1tN7pu9tzqbXl8u6P1SlvpndT2HR0ad0l3Jztv3Ku9f/JBzsPELr9H5o9lu+m7Z57ce3qyJ7LXoI/cN95/9Vnac/sBkUH04IcX3S/rXxUMxb52GVZ7w/lmZWTkbfvo+bGsdzvHnd9rTQgjq2xx6vn0tQ9FH1M/hc1QPlO+RM7mzF2fn/2m99fZRfL34p9SS09XUn9prK39Y/4V4Gl0AcYSy4J9g2vA5xKCiEY0krQMtCt0U/QvGV4yvmV6T/pM/sa8yLLKusy2yv6LY5Vzkesb9yzPJO8wXz//PYEbgpVCOcJhIlaikmIEsY/iXRI1ktlSVGlLGRlZOtnZbX1y1+SLFFIUKUr2ygYqCqoCaiS1NfUvGsOaXVqN2uU6uboJej76FgYKhpxGKKMPxk9NLpvmm8WYO1moWLJZLlu9tb5rU2ubb5dsH+jg6KjvJO8s4EJ2xbkuuX1yH/bo9rztVb/9jPfRHQd8Unyj/agUX3+PAKdA+yCbYEuqZYhZqGaYbLhABMtOmkhU5ErUj+ifMatxmHhSglCixi6npJjkwpSW3ZOpNHv50mTStffZZPjtT8g8dKDyYFvWUPb3XOZDCoft8yKOHMqvK3h49P2xtULOIuViuxOhJftLT59sPtVbNn3611nmcolz2hV25ymVcVUHqouRONddN3uRdEmx3vFy1JW8q3UNndeGr39twjZz3JC8qXHLosXtdmBrbFvqnbT2fR3772Z2Hrh38H72g9yHh7oOPTr0+FB37pOcp1k9B3oz+tL6dz+Lfx41sHMw8kXsy+RX+4eOvi4fbnhzf+TV289j4B1pXPC9/ITOpPmU3/SZD58/Kc8kf2798mtOcz7+66Vv7xfYFy2/p/5o+Dm1zL3isJr9q3Nr/o1R+vA2+Au6HXMA64gTx83jbxAyiQ403DQjtOfowunVGVAM7YwZTBYkBlIv+QizLQsDyxPWbDYTdoi9mSOCU4jzJVcOtw73Z55SXjPev/jK+M34vwgcE9QQHBbaLcwv3CriLbIiWiymJNYtHiC+InFUUkqyTcpRalI6TUZE5qVs7jaDbX/JVcl7KtAptClGKgko9SunqyiojKnmqWmrfVYv1TDXWNA8p2Wv9Uu7TsddF6d7XY+iT9K/YxBpyG/Ya5RurGQ8ZVJiaoucO26ZR1lIWby3LLPysGa1fmZTYOtgR7YbtD/h4O0o7PjR6YpzkouxK4PrkFule4yHgSet56DX6e3B3greyzvu+eT7evlJ+C1SOv2PBvgGKgahgwaDa6mpIU6h0mGYsLfhNyOKdyZEukZpRPPGoGNmYgfi2uPrE8oS83alJSUkh6b4796+xy3Vaa9Dmn26/T6HDKf97pnbDwQcDM2KyU7NOZhbcKjscE1e45G7+X0FI0e/HEcXShR5FR85ca9k+aTsKb+y46cfnVkpVzgXUFFyvqcKXa1Vk1BbX/fpouSlkPray7NXVRr2Xutu5GgKa+68yXcrteVdq1VbS7t8x4VOqXtXHhg8HHqU2M33pLfnUJ/TM9EBMPjp5fuhj2/AW5GxHeO1k5jppE/gc8Uc5ZvuotpP55Xi9fnf/Ea3XrAqABw/AMD6dxqHGgByLwAgtgsANiT3tKMDwEkdoARMAbTQASAL7T/vDwhJPImADHiAJFADZkh+GYbklEWgHnSBcbAKsUPKkCMUAx2HmqE3SM4njXJBpaHqUSMwA2wAJ8AX4UkkS/NCl6JfI5mYD+Y85jNWBZuGfYrjwYXj2vBkPBXfTuAkxBH6iYrEIuIKDYXmCa06bTUdO10uPYo+mf47QxzDImMSE8SUTWIlVZDVyL3MISw4lvOsxqyTbAfZpdh7OWI5OThbufy5abiv8njwwrwX+TyRjKBPIE/QVohJ6JlwkYinqIDopNgF8RgJDUlIsksqX9oTWZ1zsv3bWuQq5QsU9ihSlRyVNVT4VCHVUbUW9WMaIZraWvRaw9o1OrG6unp4vT79BoNrhk1GN41bTe6adpn1mA9ajFhOWc1bL9vi7VjtRR3UHK2cKM4pLsWurW7THmRPfa/I7eXeAz5EX32/ZEqz//dAtaDk4PYQYqhzWEX4wk6zyLKo2Rit2Jy4kQSlxCO75pNdU+7v0U5tTbNMH8/IytQ+CLL6ci4fOplXkG92FD52rzC/OKDE8KR0meAZkXKlCpvKqOrS2scXQb3qFZsG9+vBTSk3jt+6eru/bbGDt9PsfuzDM4+edq/2yPRtf3Z44M5L8hBl+OLIzBj3uNqE3pT8B/qPL2YOf9k22z5v9rXzL4WFksWlH/Y/zy/Nr2ispv66sxE/NuefhMy/BFAFJsAVhIA94BioA51gBPyAyJAcZANFQEegBugVCqAkkCw/HXUF9Q7J463gDLgNXkZro/ehuzHsmEBMI5aA9cY24hhxYbjHeGl8Hn6B4EW4T5QlFtHANFE0Y7TOtI/oDOla6bXobyNZ7ENGe8YRJE9dIx0jy5KfMEcgmWczqy8bDVszeyAHK8cDzl1c0lxj3EU8trx43g6+vfwGAliBJ4KFQr7CssIrIt2iZWJR4sYSXBJfJR9JnZNOlfGU1dwmIccuT5BfUZhVHFd6ofxI5ZbqBbUS9QMa0ZqeWobakjqMOgu6Q3qt+vUGVwwbjJqMb5m0mXaaPTLvtXhh+dZqynreZtkOb8/qIOao7mTt7O+y27XE7Yb7kMeql+B2C+/YHWd8evwgiop/REBN4GSwKDUk5EroUrhpROHO6Sit6N0xbXHoeKuEosTJJPXkwylTe4xTq9Po03ftm0LiSe9Bi6wHOWa53Ycd8kbzU4/yHrtTGFhMf6K51P8Uuez+md3lKue+nr9SFVejVYe9MHDp/OWUq17XVBrpm8ZvXLu177ZNG/udsY6azuj7Wg9xXYOPa57s7fHq03kmMsA0+PCl86uJ10lvmEeujjqNrYxXT7hPMUx3fTw4Y/mFcfbF/JlvIQsq31E/epZKV4J+KW7NPwywgHYjAogDFWQFuIFwsB+cBrfAELL/BSELKA6qgAZRNCgjZOd3wHjYHj4Nf0VboKswBEw05i3WCdntNrgBPAX/k1BIVCdO0Jyg1aMdpkum56fvYkhglGQcZzpN8iNLkL8zP2ApY01m82TX45DiZOei4UZxr/As8a7wAwEccgLlEZYV0RZ1EAsS3ytxQvI6knfPyTJuU5Bzld+jUKHYo7SsIqHqrlag3q/JrOWuXaEzq6etf8jgrZGicY7JmJmWeaHFVys764u2tHZh9o8cJZ1ynD+6WrjVehA8qV4PvEV37PeZ8DOkVAbAgf5Bd6miIZmh0+FWEfWRLFGJ0aOxRnGXEtgT9+z6lOyG7FOV1Ko0jvTDGej9KZlfD3pkXcley3U6VHV46Yhj/qWjxGPU4/eLpIpzT8yWup68XSZ6Oh+J/f7nus9rVlZVM9Uk1U5ecLzYUi96Oe/KYoP3tfuNMk1Hmudu2t+6dJvYGtjW2k7qCLjbeA993+5B6cPxRxKPqd2VT8Z6OHvt+/b3X3v2boA4KPfC4WX0q8NDNa/vDg+8mRyZf7syBr3DjWPfYyfAxNLk56mR6Scfmj+Wfzo4E/HZ+ovULG727VzzfNZXj28S377+1bKQvmj0Hfu980fqT82f80vnlz1WiCuNq5RfdL+urrmvz39MoKLCxusDojUAADOytvZNFABcAQCr+Wtry+Vra6vnkGRjGIA7YZv/fTbeNYwAnOFaR32XF/71/+V/ANkpxVnRwk3PAAAErUlEQVRoBe2VTaxcYxjH59Jota5og0bbxUHUxiXo8i5vtJI2EYsKTZhV0S5EpK0IzbGxUGJjc7GgixsfOxUfCYnbiBVRYYPFDKoJC0WRtkr9fmfOE29uZqYzdwYV7z/5zfu8X8953ud9zplGIytnIGcgZyBnIGcgZyBnIGcgZyBnIGfgLMnAEuKYPEtiGXcYBQ6nx+T0kiH8PDHE2lj6t93DLE84DUfBwCbq/qF6bHXdOt+q7XNoQ7sw3C/DHMwDFaDWg3GkatIJv8MkN/Uxiu15d9QOfAGMpaj7xh75iLi3MhbxrqzX2ZjHtJ9MDWRGgZpz/acq6MQztyQTPs/nDqIz3cMgPvquKZmdS1Z4mR6mlYyFWWJYDKmm6KRrtU2KhToDHlxbre00DZ+xFCxO1+ujgAPg3riQSWyln7jIaoAf9+vHi039FvRdrxxvQvjZgK3sO+d+tRzse24TrrbAaTBGVUIT4vyOu0a5zn22yjXzldUZtxiVeXBPFI1jU9AEY1BF9dvZZ0z60q97jE9fnsN9yjzo1/3xfMwqX+51znz4XG2lX+X5B7mHanG/HwPrp/uY3AaTYOCnQBXQBIPrp7uY3Jgs0L4FboTjcD7sAy/hflB7wAT8Al/BCfgNNsMy+B5MyDFQm+Cdyvrr5zLM7+AIHAaTvBM+Ap/rWT6t+YnW+efA89j3Qj4H9RKsgnvgYTBn++Fy8CuuSngfvBT1FLwK87AbJuFJUF/AtZXVaNxKe3dtey7zYX7mwD3mSb/fgHqh0zSuoN0LJ+u+ZzLmi+AaOAgWi7lzfB18DKHtGJ5vHPcQPnu2Xu6ZZJAXgpf5OJwL6l3w8hejD9l0L1wHN8GD8C2on8HkvA6Xgsko4FF4G9owAcZVwANgfwb8O3bN0+D69+r2Slp1PbTBdWF7+c7fAL/DbXAElMU3DZ/U0FRf1DtpL4Y1DnSRxdeG12AbzIFFs1CzDPjFsHDVy/AK/AF3wOG6tXhcE8V2EvsYfAlt+ACc134e9LkClOOfQfTXYz8Dalz30PHW4zcO12O68QYTXoiH2wc/gGrXxKEd66Y3GXw2mXgL+0XQ19fg18sEmtSHQPl2hS4Igza1HV4JLYiit7gsnF2gTKbSn0Wrzus0VSGvq+2raZ23yFTEYSH5NX3MQWQhm6+DsBksztvBOELxnL0MbATP+SP4Mm4HdRVY/BadRXIKlHlQfs2U8T8CJYRurg1j92VUsS+1o6CM2RfH9b+6AHkfvtRqHPfQ8TTCr0HOg18NmQXHtA/BUYg3tMQ2MQt1gAHXuceCVdPgmLRA+ZzoFw4g97i/gBKU671sW+eNwzWp1tJxTn/OqxIivqXYzusj9tpXczADPsOxON8O7Igfs/o7KjWQedGXz9sKPse9nkmUex0Tv5AlbICQL4f7nS/ANdrGb2s8xhBj2sr4HfNla4HSlzHEemPQ95K6pak0jnsIX/96O9Elgm5jXZYtasgEpwXRy0m/GKIQe+0dZHyh/7RvYSxGqY9h9/sCRHHG3lH8hY//ZevXZ2rEk/s3OKqPfiFYxP+0/JJl5QzkDOQM5AzkDOQM5AzkDOQM5AzkDOQM5Az8BzPwJ9VAFLdtU88oAAAAAElFTkSuQmCC;" parent="1" vertex="1">
          <mxGeometry x="111" y="217" width="153" height="20" as="geometry" />
        </mxCell>
        <mxCell id="2IYU9ypNfQQBlidGSXzQ-9" value="" style="shape=image;verticalLabelPosition=bottom;labelBackgroundColor=default;verticalAlign=top;aspect=fixed;imageAspect=0;image=data:image/png,iVBORw0KGgoAAAANSUhEUgAAAGYAAAATCAYAAABiMHgQAAAYMGlDQ1BJQ0MgUHJvZmlsZQAAWIWVWQdUFEuz7tnZTN4l55xBcs455wwisKQlSQYBRRBRgiKogKCoiEQVFQVUBEEMKEpQUBERRIKKAnpBJcgbgt77//ec987rc3rmm+rq6qrq7pquGQC4lHwjI8NQjACER8RGO5ga8Lu5e/DjpgABwEglAwlfSkykvp2dFUDK7/t/lsVBAK3fn8msy/p3+/9amPwDYigAQHYI9vOPoYQj+BoAaBVKZHQsAJgZhC6UEBuJYCyiJWCORhREsPA6DtrEauvYbxNbbfA4ORgi2AcAPK2vb3QQAPTrevHHU4IQOfS5SBspwp8agbCeQbAOJdjXHwDOUYRHOjx8J4K5aBEs7vcPOUH/IdPvj0xf36A/eNOWjYI3osZEhvnu+n+64/8u4WFxv8cQQiptcLSZw7rN634L3Wm5jhHdoYcRfja2CCYh+DnVf4N/HU8Gx5k5b/H/oMQYIj4DrACgaP19jSwRzI1gwYgwG6stuk4g1cQcwYjvUU7UWHOnzb4o/+idDlvyUYkBMcaOv7Fv9MZY6zzZcaHO+lsyy4IDzH/LvJkU7OS6qSeqN57qYoNgegQPx4Q6Wm7xfEwKNrT5zRMd57CuMzLnMAiMNnHY5IGFw2N+2wVrBFPNbbawVWywk9lmX9ib4ruhGzuCQwJi3Kx+6+kfYGS8aRecHhDhvKU/XBAZa+CwxV8RGWa3xQ+3BISZrtMFEfw0Jt7xd9+5WGSxbdqLBpGxdk6buqGZQ3wt7DZ1QEsCK2AIjAA/iEOqH9gJQgD16UzTDPK02WICfEE0CAIBQGaL8ruH60ZLBHJ1BEngM4ICQMyffgYbrQEgHqGv/qFuXmVA4EZr/EaPUDCJ4HBgCcKQ57iNXhF/RnMB7xEK9V+jUxBdw5C63vYvGj/DbxrWGGuENcOaYCXQnGgdtCbaCrnqIVUBrYZW/63X3/yYSUwf5h1mADOKebWDmh79X5rzA2swiuhosmWd3z+tQ4siUpXRBmhtRD4iG82K5gQyaCVkJH20LjK2MkL9p65xfyz+25dbsghyBBSBjaBHEP9vDegl6ZX/SFn31D99samX3x9vGf5p+W87DP/hP3/kbvnfnPBBuAF+ALfDXXAL3AT44Ta4Ge6Gb6/jP2vj/cba+D2aw4Y+oYgc6r/G890ac91rMXJ1ch/kVrbaQGxAYuz6ZjHcGbkrmhoUHMuvj0TrAH7zCIqsNL+CnIIiAOuxfzO0fHPYiOkQa8/fNMp+AFTnACAs/U0L/wbAZSIS+qz/pol4I9sHC0D1JCUuOn6Thl6/YAARMCA7hQPwIrFLHLFIAagATaAHjIEFsAVOwB14I34ORtZpNEgAKSANZIIccAQcByXgNDgHqsFFcBU0gRbQDu6Dx6AXDIDXyFqZAJ/AHFgEyxAE4SA6iAxxQHyQCCQFKUBqkA5kDFlBDpA75AMFQRFQHJQC7YNyoAKoBDoL1UBXoBtQO9QF9UGvoDHoA/QVWkLBKFoUM4oHJYrahlJD6aMsUU6o7aggVBQqCZWBOowqRpWjLqAaUe2ox6gB1CjqE2oBBjANzAoLwDKwGmwI28IecCAcDe+Bs+FCuBy+BN9EZvoZPArPwD/RWDQZzY+WQdarGdoZTUFHofegc9El6Gp0I7oT/Qw9hp5D/8LQYbgxUhgNjDnGDROEScBkYgoxlZjrmHvI3pnALGKxWFasGFYV2Xvu2BBsMjYXewpbj72D7cOOYxdwOBwHTgqnjbPF+eJicZm4E7gLuDZcP24C9wNPg+fDK+BN8B74CHw6vhBfi2/F9+On8MsERoIIQYNgS/An7CLkESoINwk9hAnCMpGJKEbUJjoRQ4hpxGLiJeI94jDxGw0NjSCNOo09DZVmL00xzWWahzRjND9pSbSStIa0XrRxtIdpq2jv0L6i/UZHRydKp0fnQRdLd5iuhu4u3QjdD3oyvSy9Ob0/fSp9KX0jfT/9FwYCgwiDPoM3QxJDIUMDQw/DDCOBUZTRkNGXcQ9jKeMNxheMC0xkJnkmW6ZwplymWqYupmkSjiRKMib5kzJI50h3SeNkmCxENiRTyPvIFeR75AlmLLMYszlzCHMO80Xmp8xzLCQWJRYXlkSWUpbbLKOsMKsoqzlrGGse61XWQdYlNh42fbYAtiy2S2z9bN/Zudj12APYs9nr2QfYlzj4OYw5QjnyOZo43nCiOSU57TkTOMs473HOcDFzaXJRuLK5rnINcaO4JbkduJO5z3F3cy/w8PKY8kTynOC5yzPDy8qrxxvCe4y3lfcDH5lPh4/Kd4yvje8jPwu/Pn8YfzF/J/+cALeAmUCcwFmBpwLLgmKCzoLpgvWCb4SIQmpCgULHhDqE5oT5hK2FU4TrhIdECCJqIsEiRSIPRL6Liom6ih4QbRKdFmMXMxdLEqsTGxanE9cVjxIvF38ugZVQkwiVOCXRK4mSVJYMliyV7JFCSalIUaVOSfVJY6TVpSOky6VfyNDK6MvEy9TJjMmyylrJpss2yX7ZJrzNY1v+tgfbfskpy4XJVci9lifJW8iny9+U/6ogqUBRKFV4rkinaKKYqtisOK8kpRSgVKb0UpmsbK18QLlDeVVFVSVa5ZLKB1VhVR/Vk6ov1JjV7NRy1R6qY9QN1FPVW9R/aqhoxGpc1ZjVlNEM1azVnNYS0wrQqtAa1xbU9tU+qz2qw6/jo3NGZ1RXQNdXt1z3nZ6Qnr9epd6UvoR+iP4F/S8GcgbRBtcNvhtqGO42vGMEG5kaZRs9NSYZOxuXGI+YCJoEmdSZzJkqmyab3jHDmFma5Zu9MOcxp5jXmM9ZqFrstui0pLV0tCyxfGclaRVtddMaZW1hfdR62EbEJsKmyRbYmtsetX1jJ2YXZXfLHmtvZ19qP+kg75Di8MCR7LjDsdZx0cnAKc/ptbO4c5xzhwuDi5dLjct3VyPXAtdRt21uu90eu3O6U92bPXAeLh6VHguexp7HPSe8lL0yvQa3i21P3N7lzekd5n17B8MO3x0NPhgfV59anxVfW99y3wU/c7+TfnMUQ0oR5ZO/nv8x/w8B2gEFAVOB2oEFgdNB2kFHgz4E6wYXBs9QDakl1PkQs5DTId9DbUOrQtfCXMPqw/HhPuE3IkgRoRGdO3l3Ju7si5SKzIwcjdKIOh41F20ZXRkDxWyPaY5lRg7Z3XHicfvjxuJ14kvjfyS4JDQkMiVGJHbvktyVtWsqySTpfDI6mZLckSKQkpYytlt/99k90B6/PR2pQqkZqRN7TfdWpxHTQtOepMulF6T/tc91380Mnoy9GeP7TffXZdJnRme+OKB54PRB9EHqwadZilknsn5l+2c/ypHLKcxZyaXkPjokf6j40NrhwMNP81Tyyo5gj0QcGczXza8uYCpIKhg/an208Rj/sexjfx3fcbyrUKnwdBGxKK5otNiquPmE8IkjJ1ZKgksGSg1K609yn8w6+f2U/6n+Mr2yS6d5TuecXjpDPfPyrOnZxnLR8sJz2HPx5yYrXCoenFc7X1PJWZlTuVoVUTVa7VDdWaNaU1PLXZtXh6qLq/twwetC70Wji82XZC6drWetz7kMLsdd/njF58rgVcurHQ1qDZeuiVw7eZ18PbsRatzVONcU3DTa7N7cd8PiRsdNzZvXb8neqmoRaCm9zXI7r5XYmtG61pbUtnAn8s5Me1D7eMeOjtd33e4+77TvfHrP8t7D+yb37z7Qf9D2UPthS5dG141Hao+aHqs8buxW7r7+RPnJ9acqTxt7VHuae9V7b/Zp9bX26/a3PzN6dv+5+fPHAzYDfYPOgy9feL0Yfen/cvpV2Kv5ofih5dd7hzHD2W8Y3xSOcI+Uv5V4Wz+qMnp7zGis+53ju9fjlPFP72Per0xkTNJNFk7xTdVMK0y3fDD50PvR8+PEp8hPyzOZn5k+n/wi/uXarN5s95zb3MR89Pza19xvHN+q/lL6q2PBbmFkMXxx+Xv2D44f1T/Vfj5Ycl2aWk5Ywa0Ur0qs3vxl+Wt4LXxtLdI32nfjKAAjFRUYCMDXKgDo3AEg9wJA9NzMzbYKjBw+UMjdBZKFPqEykDdqDzoTY4KFsY9xxfgIghVRggZHM0PbT9dEX8VQyVjP1EzqID9m7mV5yfqWbZr9E8c85xLXKg+KF8dH5KcTIAmShFiF2UXYRNnFuMV5JPgl+aUEpYVlRGXFtknLyckrKqgoaijpKhurmKuaq5mom2iYaBpq6Wtr6WjoKunJ6osa8BgyGxGN1oy/mUyavjLrNm+xqLY8apVqHWLjZmtsp2wv5sDlyOiEd4ZdIFeUG9qd4MHoyeElvF3GW2KHsA+fL6cfC4XsTwogB7IGcQULUqVDVENNwlzCqREpOwsiK6LORBfH5MfmxmXFZyccTizeVZ3Umvx6N9gjnbpj74m01/sEM3bubz+APSiUpZBtkOOYG3go6XB+XvWRO/lDBQvHmI7LFFoUBRbvO1FWcqO0/+T7UwuncWc4zkqWa52zrfA7H1u5v6qwurrmRu2juqELHy/+rMdfZrsiflW3wf1a1PWsxlNN9c1tN7pu9tzqbXl8u6P1SlvpndT2HR0ad0l3Jztv3Ku9f/JBzsPELr9H5o9lu+m7Z57ce3qyJ7LXoI/cN95/9Vnac/sBkUH04IcX3S/rXxUMxb52GVZ7w/lmZWTkbfvo+bGsdzvHnd9rTQgjq2xx6vn0tQ9FH1M/hc1QPlO+RM7mzF2fn/2m99fZRfL34p9SS09XUn9prK39Y/4V4Gl0AcYSy4J9g2vA5xKCiEY0krQMtCt0U/QvGV4yvmV6T/pM/sa8yLLKusy2yv6LY5Vzkesb9yzPJO8wXz//PYEbgpVCOcJhIlaikmIEsY/iXRI1ktlSVGlLGRlZOtnZbX1y1+SLFFIUKUr2ygYqCqoCaiS1NfUvGsOaXVqN2uU6uboJej76FgYKhpxGKKMPxk9NLpvmm8WYO1moWLJZLlu9tb5rU2ubb5dsH+jg6KjvJO8s4EJ2xbkuuX1yH/bo9rztVb/9jPfRHQd8Unyj/agUX3+PAKdA+yCbYEuqZYhZqGaYbLhABMtOmkhU5ErUj+ifMatxmHhSglCixi6npJjkwpSW3ZOpNHv50mTStffZZPjtT8g8dKDyYFvWUPb3XOZDCoft8yKOHMqvK3h49P2xtULOIuViuxOhJftLT59sPtVbNn3611nmcolz2hV25ymVcVUHqouRONddN3uRdEmx3vFy1JW8q3UNndeGr39twjZz3JC8qXHLosXtdmBrbFvqnbT2fR3772Z2Hrh38H72g9yHh7oOPTr0+FB37pOcp1k9B3oz+tL6dz+Lfx41sHMw8kXsy+RX+4eOvi4fbnhzf+TV289j4B1pXPC9/ITOpPmU3/SZD58/Kc8kf2798mtOcz7+66Vv7xfYFy2/p/5o+Dm1zL3isJr9q3Nr/o1R+vA2+Au6HXMA64gTx83jbxAyiQ403DQjtOfowunVGVAM7YwZTBYkBlIv+QizLQsDyxPWbDYTdoi9mSOCU4jzJVcOtw73Z55SXjPev/jK+M34vwgcE9QQHBbaLcwv3CriLbIiWiymJNYtHiC+InFUUkqyTcpRalI6TUZE5qVs7jaDbX/JVcl7KtAptClGKgko9SunqyiojKnmqWmrfVYv1TDXWNA8p2Wv9Uu7TsddF6d7XY+iT9K/YxBpyG/Ya5RurGQ8ZVJiaoucO26ZR1lIWby3LLPysGa1fmZTYOtgR7YbtD/h4O0o7PjR6YpzkouxK4PrkFule4yHgSet56DX6e3B3greyzvu+eT7evlJ+C1SOv2PBvgGKgahgwaDa6mpIU6h0mGYsLfhNyOKdyZEukZpRPPGoGNmYgfi2uPrE8oS83alJSUkh6b4796+xy3Vaa9Dmn26/T6HDKf97pnbDwQcDM2KyU7NOZhbcKjscE1e45G7+X0FI0e/HEcXShR5FR85ca9k+aTsKb+y46cfnVkpVzgXUFFyvqcKXa1Vk1BbX/fpouSlkPray7NXVRr2Xutu5GgKa+68yXcrteVdq1VbS7t8x4VOqXtXHhg8HHqU2M33pLfnUJ/TM9EBMPjp5fuhj2/AW5GxHeO1k5jppE/gc8Uc5ZvuotpP55Xi9fnf/Ea3XrAqABw/AMD6dxqHGgByLwAgtgsANiT3tKMDwEkdoARMAbTQASAL7T/vDwhJPImADHiAJFADZkh+GYbklEWgHnSBcbAKsUPKkCMUAx2HmqE3SM4njXJBpaHqUSMwA2wAJ8AX4UkkS/NCl6JfI5mYD+Y85jNWBZuGfYrjwYXj2vBkPBXfTuAkxBH6iYrEIuIKDYXmCa06bTUdO10uPYo+mf47QxzDImMSE8SUTWIlVZDVyL3MISw4lvOsxqyTbAfZpdh7OWI5OThbufy5abiv8njwwrwX+TyRjKBPIE/QVohJ6JlwkYinqIDopNgF8RgJDUlIsksqX9oTWZ1zsv3bWuQq5QsU9ihSlRyVNVT4VCHVUbUW9WMaIZraWvRaw9o1OrG6unp4vT79BoNrhk1GN41bTe6adpn1mA9ajFhOWc1bL9vi7VjtRR3UHK2cKM4pLsWurW7THmRPfa/I7eXeAz5EX32/ZEqz//dAtaDk4PYQYqhzWEX4wk6zyLKo2Rit2Jy4kQSlxCO75pNdU+7v0U5tTbNMH8/IytQ+CLL6ci4fOplXkG92FD52rzC/OKDE8KR0meAZkXKlCpvKqOrS2scXQb3qFZsG9+vBTSk3jt+6eru/bbGDt9PsfuzDM4+edq/2yPRtf3Z44M5L8hBl+OLIzBj3uNqE3pT8B/qPL2YOf9k22z5v9rXzL4WFksWlH/Y/zy/Nr2ispv66sxE/NuefhMy/BFAFJsAVhIA94BioA51gBPyAyJAcZANFQEegBugVCqAkkCw/HXUF9Q7J463gDLgNXkZro/ehuzHsmEBMI5aA9cY24hhxYbjHeGl8Hn6B4EW4T5QlFtHANFE0Y7TOtI/oDOla6bXobyNZ7ENGe8YRJE9dIx0jy5KfMEcgmWczqy8bDVszeyAHK8cDzl1c0lxj3EU8trx43g6+vfwGAliBJ4KFQr7CssIrIt2iZWJR4sYSXBJfJR9JnZNOlfGU1dwmIccuT5BfUZhVHFd6ofxI5ZbqBbUS9QMa0ZqeWobakjqMOgu6Q3qt+vUGVwwbjJqMb5m0mXaaPTLvtXhh+dZqynreZtkOb8/qIOao7mTt7O+y27XE7Yb7kMeql+B2C+/YHWd8evwgiop/REBN4GSwKDUk5EroUrhpROHO6Sit6N0xbXHoeKuEosTJJPXkwylTe4xTq9Po03ftm0LiSe9Bi6wHOWa53Ycd8kbzU4/yHrtTGFhMf6K51P8Uuez+md3lKue+nr9SFVejVYe9MHDp/OWUq17XVBrpm8ZvXLu177ZNG/udsY6azuj7Wg9xXYOPa57s7fHq03kmMsA0+PCl86uJ10lvmEeujjqNrYxXT7hPMUx3fTw4Y/mFcfbF/JlvIQsq31E/epZKV4J+KW7NPwywgHYjAogDFWQFuIFwsB+cBrfAELL/BSELKA6qgAZRNCgjZOd3wHjYHj4Nf0VboKswBEw05i3WCdntNrgBPAX/k1BIVCdO0Jyg1aMdpkum56fvYkhglGQcZzpN8iNLkL8zP2ApY01m82TX45DiZOei4UZxr/As8a7wAwEccgLlEZYV0RZ1EAsS3ytxQvI6knfPyTJuU5Bzld+jUKHYo7SsIqHqrlag3q/JrOWuXaEzq6etf8jgrZGicY7JmJmWeaHFVys764u2tHZh9o8cJZ1ynD+6WrjVehA8qV4PvEV37PeZ8DOkVAbAgf5Bd6miIZmh0+FWEfWRLFGJ0aOxRnGXEtgT9+z6lOyG7FOV1Ko0jvTDGej9KZlfD3pkXcley3U6VHV46Yhj/qWjxGPU4/eLpIpzT8yWup68XSZ6Oh+J/f7nus9rVlZVM9Uk1U5ecLzYUi96Oe/KYoP3tfuNMk1Hmudu2t+6dJvYGtjW2k7qCLjbeA993+5B6cPxRxKPqd2VT8Z6OHvt+/b3X3v2boA4KPfC4WX0q8NDNa/vDg+8mRyZf7syBr3DjWPfYyfAxNLk56mR6Scfmj+Wfzo4E/HZ+ovULG727VzzfNZXj28S377+1bKQvmj0Hfu980fqT82f80vnlz1WiCuNq5RfdL+urrmvz39MoKLCxusDojUAADOytvZNFABcAQCr+Wtry+Vra6vnkGRjGIA7YZv/fTbeNYwAnOFaR32XF/71/+V/ANkpxVnRwk3PAAADL0lEQVRYCe2Uu2tUQRSHE40P1ICCgtFmIhoQjIXaCCIIabfUUrcRQWx89bfXWrAUJV1A9B8woqWglZ0JIhaCWmjhO37f3TlwEzZrNi8s5gff3jPnzpw558zcHRgoKh0oHSgdKB0oHSgdWM0OnOgz2J4+5y82fQsv9i/2sh+/Cc3BZ7jbz8I1nDuY8zGvyMliHcspGAJzbs5hWMvmzGR7qQ/jGPMxLKex5qQ2gHmtWGNEqHIUAzpWCc6Byapd0IZhsHAP1PfNIrylLTA5lTITDrLGebrO5isLar6vnfxEjGiYjXZv/fpcbx4q5nRGnTwjZsJpXj5d497mENI2B2MY23qsOW6+81UCbd8p5zq2X+L6OBwP959fYBTI3K76gfcMGHQnvAGTvQfP4SdY0Cd4AglG4AO8h3ewDW7DRVC/O4/61l7BPguXIcF9eAnu5ZqDoCymqWMM/Fqewq/84gvPPzALG+E7RH0xB9fAEXirgWbgWm11anuNfQFa4IE9gn0QuopxGKzR2tRRaPZD30ew/usQe3/DVi9gb22t4Cex1kbZhGlQFfj12Li4SRY4CTYiQQWqAg/S+YOgmmscewuN5S30XRuUazwQ9zZ+U4mBzXP+VnBuyLlDeaDtpWpK33B2aJuXzIF56KuynXgqfdZWwRgkqEBV0OzHUB7zqGVs14duYhijp+JG9Zr0kJeX4DREQeexb4DrvaWjcAcegIqNj2N7c9XmzmPer0lvyh7nOT4J0Uz3ce8DEHLOLHhor+AQKA/WfBJ4SyfhFjyDpqYYjDQcxgvZtFGo4CvsBpXq3/k/OxrDhf3wi1cekoqx9nYw1xUpsdpbpCagAoN6Q/ySbE6MvRU21C9gDmIOZv3VhK+tAznfpiRwj3FwjXgBPFzXuE8bQv4/63f9dHb6t6NPtCMH1xrPcaiN0coDY8Tl9O809ne+f8HGixjOq8C8ElSgov7oh74KIh9rtE+Ow7aGNZObdJOJx2F2e9/L1y1mN58xFvP3iu87G2mTVlsL81k4dj8Pdy32XlIt3nZv//+s+Ktc7xz9CtN6b1r2Kx0oHSgdKB0oHSgdKB0oHVhuB/4Ci22l2pPj8JIAAAAASUVORK5CYII=;" parent="1" vertex="1">
          <mxGeometry x="-108.5" y="271" width="102" height="19" as="geometry" />
        </mxCell>
        <mxCell id="2IYU9ypNfQQBlidGSXzQ-11" value="&lt;br/&gt;&lt;br/&gt;&lt;br/&gt;&lt;br/&gt;&lt;br/&gt;&lt;br/&gt;1" style="text;whiteSpace=wrap;html=1;" parent="1" vertex="1">
          <mxGeometry x="-241" y="357" width="33" height="37" as="geometry" />
        </mxCell>
      </root>
    </mxGraphModel>
  </diagram>
</mxfile>
